<?xml version="1.0" standalone="no"?>
<!DOCTYPE svg PUBLIC "-//W3C//DTD SVG 1.1//EN" "http://www.w3.org/Graphics/SVG/1.1/DTD/svg11.dtd" >
<!--
2013-9-30: Created.
-->
<svg>
<metadata>
Created by iconfont
</metadata>
<defs>

<font id="iconfont" horiz-adv-x="1024" >
  <font-face
    font-family="iconfont"
    font-weight="500"
    font-stretch="normal"
    units-per-em="1024"
    ascent="896"
    descent="-128"
  />
    <missing-glyph />
    
    <glyph glyph-name="_broad_back" unicode="&#59606;" d="M683.52 394.24c-2.56 12.8-7.68 23.04-15.36 33.28l-225.28 227.84c-23.04 23.04-58.88 23.04-84.48 0s-23.04-58.88 0-84.48l186.88-186.88-186.88-189.44c-23.04-23.04-23.04-58.88 0-84.48 12.8-12.8 25.6-17.92 40.96-17.92s28.16 5.12 40.96 17.92l227.84 227.84c15.36 15.36 17.92 35.84 15.36 56.32z"  horiz-adv-x="1024" />

    
    <glyph glyph-name="_layertree_cuttxt" unicode="&#59607;" d="M712.458853 25.216958c97.037406 107.25187 163.431421 252.80798 163.431421 252.80798l-40.857855 35.750623 171.092269 186.413965c7.660848 7.660848 7.660848 20.428928-2.553616 28.089776l-12.768079 12.76808c-7.660848 7.660848-20.428928 7.660848-28.089776-2.553616L791.620948 352.0798 367.720698-128s234.932668 33.197007 344.738155 153.216958zM995.910224 873.017456H25.53616c-15.321696 0-25.53616-10.214464-25.53616-25.536159s10.214464-25.53616 25.53616-25.53616h459.650872v-646.064838c0-15.321696 10.214464-25.53616 25.53616-25.536159s25.53616 10.214464 25.53616 25.536159V821.945137h459.650872c15.321696 0 25.53616 10.214464 25.53616 25.53616s-10.214464 25.53616-25.53616 25.536159z"  horiz-adv-x="1024" />

    
    <glyph glyph-name="_interaction_back" unicode="&#59608;" d="M734.72 578.56H253.44V686.08c0 2.56-2.56 2.56-5.12 2.56l-230.4-133.12c-2.56 0-2.56-5.12 0-5.12l230.4-133.12c2.56 0 5.12 0 5.12 2.56v107.52h483.84c135.68 0 248.32-99.84 248.32-222.72 0-122.88-110.08-222.72-248.32-222.72H135.68c-15.36 0-25.6-10.24-25.6-25.6s10.24-25.6 25.6-25.6h599.04c163.84 0 299.52 122.88 299.52 273.92s-133.12 273.92-299.52 273.92z"  horiz-adv-x="1034" />

    
    <glyph glyph-name="_index_copy" unicode="&#59609;" d="M701.44 826.88c5.12 0 10.24-5.12 10.24-10.24v-622.08c0-5.12-5.12-7.68-7.68-7.68H79.36c-2.56 0-7.68 2.56-7.68 7.68V816.64c0 5.12 5.12 10.24 7.68 10.24h622.08m0 51.2H79.36C48.64 878.08 20.48 849.92 20.48 816.64v-622.08c0-33.28 28.16-58.88 58.88-58.88h622.08c33.28 0 58.88 28.16 58.88 58.88V816.64c2.56 33.28-25.6 61.44-58.88 61.44zM878.08-56.32H358.4c-46.08 0-84.48 38.4-84.48 84.48V76.8c0 15.36 10.24 25.6 25.6 25.6s25.6-10.24 25.6-25.6v-48.64c0-17.92 15.36-33.28 33.28-33.28h519.68c17.92 0 33.28 15.36 33.28 33.28V547.84c0 17.92-15.36 33.28-33.28 33.28h-64c-15.36 0-25.6 10.24-25.6 25.6s10.24 25.6 25.6 25.6h64c46.08 0 84.48-38.4 84.48-84.48v-519.68c2.56-46.08-35.84-84.48-84.48-84.48z"  horiz-adv-x="1024" />

    
    <glyph glyph-name="_broad_home" unicode="&#59610;" d="M998.4 414.72c17.92 0 23.04 10.24 10.24 23.04L535.04 875.52c-12.8 12.8-33.28 12.8-46.08 0L15.36 437.76c-12.8-12.8-7.68-23.04 10.24-23.04h110.08c17.92 0 33.28-15.36 33.28-30.72v-458.24c0-17.92 15.36-30.72 33.28-30.72h166.4c17.92 0 33.28 15.36 33.28 30.72v212.48c0 17.92 15.36 30.72 33.28 30.72h161.28c17.92 0 33.28-15.36 33.28-30.72v-212.48c0-17.92 15.36-30.72 33.28-30.72h163.84c17.92 0 33.28 15.36 33.28 30.72V384c0 17.92 15.36 30.72 33.28 30.72H998.4z"  horiz-adv-x="1024" />

    
    <glyph glyph-name="_tag_uparrow" unicode="&#59611;" d="M504.32 524.8L232.96 261.12c-5.12-5.12-2.56-15.36 7.68-15.36h542.72c10.24 0 15.36 10.24 7.68 15.36L519.68 524.8c-5.12 2.56-10.24 2.56-15.36 0z"  horiz-adv-x="1024" />

    
    <glyph glyph-name="_demo_delete" unicode="&#59612;" d="M839.68 614.4c-15.36 0-25.6-10.24-25.6-25.6v-640c0-15.36-15.36-25.6-30.72-25.6H243.2c-17.92 0-30.72 12.8-30.72 25.6V588.8c0 15.36-10.24 25.6-25.6 25.6s-25.6-10.24-25.6-25.6v-640c0-43.52 35.84-76.8 81.92-76.8h540.16c46.08 0 81.92 35.84 81.92 76.8V588.8c0 15.36-12.8 25.6-25.6 25.6zM983.04 742.4h-194.56V829.44c0 35.84-30.72 66.56-69.12 66.56H317.44C281.6 896 250.88 865.28 250.88 829.44V742.4H35.84c-15.36 0-25.6-10.24-25.6-25.6s10.24-25.6 25.6-25.6h947.2c15.36 0 25.6 10.24 25.6 25.6s-10.24 25.6-25.6 25.6zM302.08 742.4V829.44c0 7.68 7.68 15.36 17.92 15.36h401.92c10.24 0 17.92-7.68 17.92-15.36V742.4H302.08zM419.84 25.6V588.8c0 15.36-10.24 25.6-25.6 25.6s-25.6-10.24-25.6-25.6v-563.2c0-15.36 10.24-25.6 25.6-25.6s25.6 10.24 25.6 25.6zM650.24 25.6V588.8c0 15.36-10.24 25.6-25.6 25.6s-25.6-10.24-25.6-25.6v-563.2c0-15.36 10.24-25.6 25.6-25.6s25.6 10.24 25.6 25.6z"  horiz-adv-x="1024" />

    
    <glyph glyph-name="_demo_close" unicode="&#59613;" d="M547.84 384L1013.76 849.92c10.24 10.24 10.24 25.6 0 35.84s-25.6 10.24-35.84 0L512 419.84 46.08 885.76C35.84 896 20.48 896 10.24 885.76s-10.24-25.6 0-35.84L476.16 384 10.24-79.36c-10.24-10.24-12.8-25.6-2.56-35.84s25.6-12.8 35.84-2.56l2.56 2.56L512 348.16l463.36-465.92c10.24-10.24 28.16-10.24 38.4 0s10.24 28.16 0 38.4L547.84 384z"  horiz-adv-x="1024" />

    
    <glyph glyph-name="_tag_rightarrow" unicode="&#59614;" d="M650.24 394.24L386.56 665.6c-5.12 5.12-15.36 2.56-15.36-7.68v-542.72c0-10.24 10.24-15.36 15.36-7.68l263.68 271.36c2.56 5.12 2.56 10.24 0 15.36z"  horiz-adv-x="1024" />

    
    <glyph glyph-name="_demo_quit" unicode="&#59615;" d="M1016.32 414.72c-2.56 0-2.56 0 0 0l-189.44 171.52c-10.24 10.24-25.6 7.68-35.84-2.56-10.24-10.24-7.68-25.6 2.56-35.84l148.48-133.12H263.68c-15.36 0-25.6-10.24-25.6-25.6s10.24-25.6 25.6-25.6h673.28l-125.44-140.8c-5.12-5.12-7.68-10.24-7.68-17.92 0-15.36 10.24-25.6 25.6-25.6 7.68 0 15.36 2.56 17.92 7.68l168.96 189.44c10.24 12.8 10.24 28.16 0 38.4zM680.96 61.44c-15.36 0-25.6-10.24-25.6-25.6v-7.68c0-58.88-46.08-104.96-104.96-104.96H156.16C97.28-76.8 51.2-30.72 51.2 28.16V739.84C51.2 798.72 97.28 844.8 156.16 844.8h396.8c58.88 0 104.96-76.8 104.96-135.68v-7.68c0-15.36 10.24-25.6 25.6-25.6s25.6 10.24 25.6 25.6v7.68C709.12 796.16 640 896 552.96 896H156.16C69.12 896 0 826.88 0 739.84v-711.68C0-58.88 69.12-128 156.16-128h396.8c87.04 0 156.16 69.12 156.16 156.16v7.68c-2.56 15.36-12.8 25.6-28.16 25.6z"  horiz-adv-x="1024" />

    
    <glyph glyph-name="_doc_link" unicode="&#59616;" d="M422.4 268.8c-7.68 0-12.8 2.56-17.92 7.68-46.08 46.08-71.68 107.52-74.24 174.08-2.56 66.56 23.04 125.44 66.56 171.52l207.36 207.36c92.16 92.16 248.32 89.6 345.6-7.68C995.84 775.68 1024 714.24 1024 650.24c2.56-66.56-23.04-125.44-66.56-171.52l-125.44-125.44c-10.24-10.24-25.6-10.24-35.84 0-10.24 10.24-10.24 25.6 0 35.84l125.44 125.44c35.84 35.84 53.76 81.92 51.2 133.12 0 51.2-23.04 99.84-58.88 138.24-76.8 76.8-199.68 79.36-271.36 7.68L435.2 586.24c-35.84-35.84-53.76-81.92-51.2-133.12 2.56-51.2 23.04-99.84 58.88-138.24 10.24-10.24 10.24-25.6 0-35.84-7.68-7.68-12.8-10.24-20.48-10.24zM253.44-128h-5.12c-64 2.56-125.44 28.16-174.08 74.24-97.28 97.28-99.84 250.88-7.68 345.6l133.12 133.12c10.24 10.24 25.6 10.24 35.84 0s10.24-25.6 0-35.84L102.4 253.44c-71.68-71.68-69.12-194.56 7.68-271.36C148.48-56.32 197.12-76.8 248.32-76.8c51.2-2.56 99.84 17.92 133.12 51.2l207.36 207.36c71.68 71.68 69.12 194.56-7.68 271.36-10.24 10.24-10.24 25.6 0 35.84 10.24 10.24 25.6 10.24 35.84 0 97.28-97.28 99.84-250.88 7.68-345.6l-207.36-207.36c-43.52-40.96-99.84-64-163.84-64z"  horiz-adv-x="1024" />

    
    <glyph glyph-name="_layertree_pic" unicode="&#59617;" d="M929.28 737.28H94.72C43.52 737.28 0 704 0 663.04v-650.24c0-40.96 43.52-74.24 94.72-74.24h834.56c51.2 0 94.72 33.28 94.72 74.24V663.04c0 40.96-43.52 74.24-94.72 74.24zM972.8 12.8c0-17.92-20.48-33.28-43.52-33.28H94.72c-23.04 0-43.52 15.36-43.52 33.28V663.04c0 17.92 20.48 33.28 43.52 33.28h834.56c23.04 0 43.52-15.36 43.52-33.28v-650.24zM478.72 250.88c10.24-10.24 25.6-7.68 35.84 2.56 10.24 10.24 7.68 25.6-2.56 35.84l-61.44 51.2c-17.92 15.36-40.96 15.36-58.88 2.56l-220.16-161.28c-10.24-7.68-12.8-25.6-5.12-35.84 5.12-7.68 12.8-10.24 20.48-10.24 5.12 0 10.24 2.56 15.36 2.56l217.6 161.28 58.88-48.64zM739.84 314.88c-15.36 15.36-40.96 17.92-61.44 5.12l-309.76-220.16c-10.24-7.68-12.8-23.04-5.12-35.84 5.12-7.68 12.8-10.24 20.48-10.24 5.12 0 10.24 0 12.8 2.56l307.2 220.16 130.56-140.8c10.24-10.24 25.6-10.24 35.84 0 12.8 10.24 12.8 25.6 2.56 35.84l-133.12 143.36zM266.24 384c66.56 0 117.76 53.76 117.76 117.76s-53.76 117.76-117.76 117.76-117.76-53.76-117.76-117.76 51.2-117.76 117.76-117.76z m0 184.32c38.4 0 66.56-30.72 66.56-66.56 0-38.4-30.72-66.56-66.56-66.56s-66.56 30.72-66.56 66.56c0 35.84 28.16 66.56 66.56 66.56z"  horiz-adv-x="1024" />

    
    <glyph glyph-name="_layertree_cutshap" unicode="&#59618;" d="M716.8 46.08c97.28 107.52 163.84 253.44 163.84 253.44l-40.96 35.84 171.52 186.88c7.68 7.68 7.68 20.48-2.56 28.16l-12.8 12.8c-7.68 7.68-20.48 7.68-28.16-2.56L793.6 371.2 368.64-107.52s238.08 33.28 348.16 153.6zM1024 801.28c0 51.2-40.96 94.72-94.72 94.72-33.28 0-61.44-17.92-79.36-43.52H174.08C156.16 878.08 128 893.44 94.72 893.44 43.52 893.44 0 852.48 0 801.28 0 768 17.92 739.84 46.08 721.92V46.08C17.92 30.72 0 0 0-33.28c0-51.2 40.96-94.72 94.72-94.72 33.28 0 61.44 15.36 76.8 40.96h143.36c15.36 0 25.6 10.24 25.6 25.6s-10.24 25.6-25.6 25.6h-128v2.56c0 51.2-40.96 92.16-92.16 92.16V706.56c51.2 0 89.6 40.96 92.16 92.16h647.68c0-51.2 43.52-92.16 92.16-92.16v-87.04c0-15.36 10.24-25.6 25.6-25.6s25.6 10.24 25.6 25.6v102.4C1006.08 739.84 1024 768 1024 801.28zM138.24-33.28c0-23.04-17.92-43.52-43.52-43.52-23.04 0-43.52 17.92-43.52 43.52 0 23.04 17.92 43.52 43.52 43.52 23.04 0 43.52-20.48 43.52-43.52zM94.72 757.76C71.68 757.76 51.2 778.24 51.2 801.28 51.2 824.32 69.12 844.8 94.72 844.8c23.04 0 43.52-17.92 43.52-43.52 0-23.04-20.48-43.52-43.52-43.52z m791.04 43.52c0 23.04 17.92 43.52 43.52 43.52 23.04 0 43.52-17.92 43.52-43.52 0-23.04-17.92-43.52-43.52-43.52-23.04 0-43.52 20.48-43.52 43.52z"  horiz-adv-x="1024" />

    
    <glyph glyph-name="_demo_leftarrow" unicode="&#59619;" d="M998.4 394.24H84.48l245.76 273.92c10.24 10.24 7.68 25.6-2.56 35.84s-25.6 7.68-35.84-2.56L7.68 386.56l-2.56-2.56c0-2.56-2.56-2.56-2.56-5.12v-17.92l2.56-2.56s2.56-2.56 5.12-2.56l2.56-2.56 317.44-284.16c10.24-10.24 25.6-7.68 35.84 2.56 10.24 10.24 7.68 25.6-2.56 35.84L92.16 343.04H998.4c15.36 0 25.6 10.24 25.6 25.6s-12.8 25.6-25.6 25.6z"  horiz-adv-x="1024" />

    
    <glyph glyph-name="_tag_downarrow" unicode="&#59620;" d="M519.68 227.84l271.36 263.68c5.12 5.12 2.56 15.36-7.68 15.36H240.64c-10.24 0-15.36-10.24-7.68-15.36l271.36-263.68c5.12-2.56 10.24-2.56 15.36 0z"  horiz-adv-x="1024" />

    
    <glyph glyph-name="_demo_control" unicode="&#59621;" d="M980.48 711.68H38.4c-15.36 0-25.6 10.24-25.6 25.6s10.24 25.6 25.6 25.6h942.08c15.36 0 25.6-10.24 25.6-25.6s-10.24-25.6-25.6-25.6zM980.48 360.96H38.4c-15.36 0-25.6 10.24-25.6 25.6s10.24 25.6 25.6 25.6h942.08c15.36 0 25.6-10.24 25.6-25.6s-10.24-25.6-25.6-25.6zM980.48 10.24H38.4c-15.36 0-25.6 10.24-25.6 25.6s10.24 25.6 25.6 25.6h942.08c15.36 0 25.6-10.24 25.6-25.6s-10.24-25.6-25.6-25.6z"  horiz-adv-x="1024" />

    
    <glyph glyph-name="_layertree_cutpic" unicode="&#59622;" d="M412.16 61.44H117.76c-64 0-115.2 51.2-115.2 115.2V757.76C2.56 821.76 53.76 872.96 117.76 872.96h788.48c64 0 115.2-51.2 115.2-115.2V614.4c0-15.36-10.24-25.6-25.6-25.6s-25.6 10.24-25.6 25.6V757.76c0 35.84-28.16 64-64 64H117.76C81.92 821.76 53.76 793.6 53.76 757.76v-581.12c0-35.84 28.16-64 64-64h294.4c15.36 0 25.6-10.24 25.6-25.6s-10.24-25.6-25.6-25.6zM291.84 704c48.64 0 87.04-38.4 87.04-87.04s-38.4-87.04-87.04-87.04S204.8 565.76 204.8 614.4s38.4 89.6 87.04 89.6m0 51.2C215.04 755.2 153.6 691.2 153.6 614.4s61.44-138.24 138.24-138.24 138.24 61.44 138.24 138.24-61.44 140.8-138.24 140.8zM284.16 220.16c-7.68 0-15.36 2.56-20.48 10.24-7.68 10.24-5.12 28.16 5.12 35.84l207.36 153.6c17.92 12.8 40.96 12.8 56.32-2.56l58.88-48.64c10.24-10.24 12.8-25.6 2.56-35.84-10.24-10.24-25.6-12.8-35.84-2.56l-53.76 46.08-204.8-151.04c-5.12-5.12-10.24-5.12-15.36-5.12zM714.24 25.6c97.28 107.52 163.84 253.44 163.84 253.44l-40.96 35.84 171.52 186.88c7.68 7.68 7.68 20.48-2.56 28.16l-12.8 12.8c-7.68 7.68-20.48 7.68-28.16-2.56L793.6 350.72 366.08-128s238.08 33.28 348.16 153.6z"  horiz-adv-x="1024" />

    
    <glyph glyph-name="_layertree_cutgrou" unicode="&#59623;" d="M719.36 40.96c97.28 107.52 163.84 253.44 163.84 253.44L842.24 332.8l171.52 186.88c7.68 7.68 7.68 20.48-2.56 28.16l-12.8 12.8c-7.68 7.68-20.48 7.68-28.16-2.56l-171.52-189.44-424.96-478.72s235.52 30.72 345.6 151.04zM460.8 48.64H148.48c-81.92 0-145.92 66.56-145.92 145.92V750.08C0 829.44 66.56 896 148.48 896h220.16c17.92 0 33.28-10.24 38.4-25.6l89.6-148.48h302.08c79.36-2.56 140.8-76.8 148.48-145.92 2.56-12.8-7.68-25.6-23.04-28.16-12.8-2.56-25.6 7.68-28.16 23.04-5.12 46.08-48.64 99.84-99.84 99.84h-307.2c-15.36 0-28.16 7.68-35.84 23.04L360.96 844.8H148.48C94.72 844.8 51.2 801.28 51.2 750.08v-555.52c0-53.76 43.52-94.72 94.72-94.72H460.8c15.36 0 25.6-10.24 25.6-25.6s-10.24-25.6-25.6-25.6z m35.84 670.72z m-135.68 128z"  horiz-adv-x="1024" />

    
    <glyph glyph-name="_index_set" unicode="&#59624;" d="M512-120.32c-30.72 0-58.88 2.56-89.6 7.68l-20.48 2.56v20.48c-2.56 48.64-30.72 92.16-74.24 112.64-43.52 20.48-92.16 17.92-130.56-7.68l-17.92-10.24-15.36 12.8c-35.84 35.84-66.56 74.24-92.16 120.32l-10.24 17.92 15.36 12.8c33.28 33.28 46.08 79.36 35.84 125.44-10.24 43.52-40.96 79.36-84.48 94.72l-17.92 7.68v20.48c2.56 51.2 15.36 99.84 33.28 148.48l7.68 15.36 20.48-2.56c46.08-5.12 89.6 12.8 117.76 48.64 30.72 35.84 38.4 87.04 20.48 130.56l-7.68 17.92 15.36 10.24c40.96 30.72 87.04 53.76 133.12 69.12l20.48 7.68 10.24-17.92c23.04-40.96 69.12-69.12 115.2-69.12 51.2 0 97.28 28.16 120.32 74.24l10.24 20.48 20.48-5.12c48.64-12.8 94.72-33.28 135.68-61.44l17.92-12.8-7.68-20.48c-23.04-46.08-17.92-102.4 15.36-143.36 33.28-40.96 87.04-58.88 138.24-43.52l23.04 5.12 7.68-20.48c17.92-46.08 30.72-94.72 33.28-145.92l2.56-23.04-23.04-5.12c-53.76-10.24-94.72-48.64-107.52-102.4-12.8-51.2 7.68-104.96 51.2-138.24l17.92-12.8-12.8-20.48c-25.6-43.52-58.88-81.92-94.72-115.2l-15.36-15.36-17.92 15.36c-40.96 33.28-97.28 40.96-143.36 17.92-46.08-23.04-74.24-66.56-74.24-115.2v-23.04l-23.04-2.56c-17.92-2.56-38.4-2.56-58.88-2.56z m-61.44 53.76c30.72-5.12 64-5.12 94.72-2.56 7.68 58.88 46.08 112.64 102.4 138.24 58.88 28.16 125.44 23.04 179.2-10.24 23.04 20.48 40.96 46.08 58.88 71.68-46.08 43.52-66.56 110.08-51.2 174.08 15.36 64 61.44 115.2 122.88 133.12-5.12 30.72-10.24 61.44-20.48 89.6-64-7.68-128 15.36-168.96 66.56-40.96 48.64-51.2 117.76-30.72 176.64-28.16 15.36-56.32 28.16-84.48 38.4-33.28-51.2-92.16-84.48-153.6-84.48-58.88 0-115.2 28.16-148.48 76.8-30.72-12.8-58.88-25.6-87.04-43.52 15.36-56.32 2.56-117.76-35.84-163.84-35.84-43.52-87.04-69.12-143.36-69.12-10.24-30.72-17.92-64-20.48-97.28 48.64-23.04 87.04-69.12 99.84-122.88 12.8-56.32 0-112.64-35.84-156.16 17.92-28.16 38.4-53.76 61.44-79.36 51.2 25.6 112.64 25.6 163.84 0s87.04-76.8 97.28-135.68zM504.32 192c-99.84 0-181.76 81.92-181.76 181.76s81.92 181.76 181.76 181.76 181.76-81.92 181.76-181.76-81.92-181.76-181.76-181.76z m0 309.76c-71.68 0-130.56-58.88-130.56-130.56s58.88-130.56 130.56-130.56 130.56 58.88 130.56 130.56-58.88 130.56-130.56 130.56z"  horiz-adv-x="1024" />

    
    <glyph glyph-name="_demo_share" unicode="&#59626;" d="M929.28 222.72c-43.52 25.6-94.72 30.72-143.36 17.92-40.96-10.24-76.8-35.84-102.4-69.12h-2.56L358.4 302.08c12.8 25.6 17.92 51.2 17.92 79.36 0 20.48-2.56 38.4-7.68 56.32l325.12 140.8c33.28-38.4 84.48-61.44 138.24-61.44 102.4 0 186.88 84.48 186.88 186.88S939.52 896 837.12 896s-186.88-84.48-186.88-186.88c0-30.72 7.68-58.88 20.48-81.92l-320-138.24c-33.28 51.2-92.16 84.48-156.16 84.48-102.4 0-186.88-84.48-186.88-186.88s84.48-186.88 186.88-186.88c56.32 0 107.52 25.6 140.8 64l327.68-133.12c-33.28-84.48 0-181.76 81.92-230.4 28.16-17.92 61.44-25.6 94.72-25.6 15.36 0 33.28 2.56 48.64 7.68 48.64 12.8 89.6 43.52 112.64 87.04 48.64 87.04 17.92 202.24-71.68 253.44zM837.12 844.8C911.36 844.8 972.8 783.36 972.8 709.12s-61.44-135.68-135.68-135.68-135.68 61.44-135.68 135.68C698.88 783.36 760.32 844.8 837.12 844.8zM192 248.32c-74.24 0-135.68 61.44-135.68 135.68s61.44 135.68 135.68 135.68 135.68-61.44 135.68-135.68-58.88-135.68-135.68-135.68z m762.88-256c-17.92-30.72-48.64-53.76-81.92-64-35.84-10.24-71.68-5.12-102.4 12.8-64 38.4-87.04 120.32-51.2 186.88 17.92 30.72 48.64 53.76 81.92 64 12.8 2.56 23.04 5.12 35.84 5.12 23.04 0 46.08-5.12 69.12-17.92 30.72-17.92 53.76-48.64 64-81.92s2.56-74.24-15.36-104.96z"  horiz-adv-x="1024" />

    
    <glyph glyph-name="_tag_leftarrow" unicode="&#59627;" d="M348.16 348.16L611.84 76.8c5.12-5.12 15.36-2.56 15.36 7.68V627.2c0 10.24-10.24 15.36-15.36 7.68L348.16 363.52c-2.56-5.12-2.56-12.8 0-15.36z"  horiz-adv-x="1024" />

    
    <glyph glyph-name="_demo_code" unicode="&#59628;" d="M547.84-53.76h74.24V-128h-74.24v74.24zM401.92 494.08V896H0v-401.92h74.24v-74.24h74.24v74.24h253.44zM74.24 565.76v256h256v-256h-256zM145.92 750.08H256V640H145.92V750.08zM622.08 896v-401.92H1024V896H622.08z m327.68-330.24h-256v256h256v-256zM768 750.08h110.08V640H768V750.08zM145.92 128H256v-110.08H145.92V128zM0 419.84h74.24v-74.24H0v74.24zM145.92 419.84h74.24v-74.24H145.92v74.24zM220.16 273.92H0V-128h401.92V273.92h-110.08v74.24H220.16v-74.24z m110.08-71.68v-256h-256v256h256zM476.16 860.16h74.24v-110.08h-74.24V860.16zM476.16 675.84h74.24v-74.24h-74.24V675.84zM693.76 419.84h-148.48v110.08h-74.24v-110.08h-181.76v-74.24h330.24v-74.24h74.24v148.48zM693.76 273.92H768v-74.24h-74.24v74.24zM476.16 273.92h74.24v-110.08h-74.24v110.08zM476.16 92.16h74.24v-145.92h-74.24v145.92zM622.08 163.84h74.24v-220.16h-74.24v220.16zM842.24 273.92H1024v-74.24h-181.76v74.24zM949.76 419.84H1024v-74.24h-74.24v74.24zM768 419.84h145.92v-74.24H768v74.24zM768 163.84h74.24v-74.24H768v74.24zM949.76 92.16h-35.84v-74.24h74.24v74.24H1024v74.24h-74.24v-74.24zM768 17.92h74.24v-74.24H768v74.24zM842.24-53.76H1024V-128h-181.76v74.24z"  horiz-adv-x="1024" />

    
    <glyph glyph-name="_layertree_start" unicode="&#59629;" d="M768 640H256C115.2 640 0 524.8 0 384s115.2-256 256-256h512c140.8 0 256 115.2 256 256s-115.2 256-256 256z m0-448c-108.8 0-192 83.2-192 192s83.2 192 192 192 192-83.2 192-192-83.2-192-192-192z"  horiz-adv-x="1024" />

    
    <glyph glyph-name="_demo_rightarrow" unicode="&#59630;" d="M1021.44 389.12v5.12 2.56 5.12 5.12l-2.56 2.56c0 2.56-2.56 2.56-2.56 5.12l-2.56 2.56L696.32 704c-10.24 10.24-25.6 7.68-35.84-2.56-10.24-10.24-7.68-25.6 2.56-35.84l271.36-243.2H25.6c-15.36 0-25.6-10.24-25.6-25.6s10.24-25.6 25.6-25.6h913.92l-245.76-273.92c-10.24-10.24-7.68-25.6 2.56-35.84 10.24-10.24 25.6-7.68 35.84 2.56l284.16 314.88 2.56 2.56c0 5.12 0 5.12 2.56 7.68z"  horiz-adv-x="1024" />

    
    <glyph glyph-name="_demo_home" unicode="&#59631;" d="M1026.56 481.28L558.08 870.4c-12.8 10.24-30.72 10.24-40.96 0L25.6 481.28c-10.24-7.68-15.36-23.04-10.24-35.84s17.92-23.04 30.72-23.04H204.8v-468.48c0-38.4 35.84-69.12 79.36-69.12h133.12c15.36 0 25.6 10.24 25.6 25.6v5.12 235.52c0 5.12 5.12 10.24 10.24 10.24h148.48c5.12 0 10.24-5.12 10.24-10.24V-89.6c0-15.36 10.24-25.6 25.6-25.6h153.6c43.52 0 79.36 30.72 79.36 69.12V424.96h138.24c12.8 0 25.6 7.68 30.72 23.04 0 10.24-2.56 25.6-12.8 33.28z m-186.88-5.12c-15.36 0-25.6-10.24-25.6-25.6v-494.08c0-7.68-12.8-17.92-28.16-17.92h-128V153.6c0 33.28-28.16 61.44-61.44 61.44h-148.48c-33.28 0-61.44-28.16-61.44-61.44v-215.04H281.6c-15.36 0-28.16 10.24-28.16 17.92V445.44v2.56 2.56c0 15.36-10.24 25.6-25.6 25.6h-128L537.6 821.76l417.28-345.6h-115.2z"  horiz-adv-x="1039" />

    
    <glyph glyph-name="_board_search" unicode="&#59632;" d="M383.99928 832.00012a319.9994 319.9994 0 1 0-319.9994-319.9994 319.9994 319.9994 0 0 0 319.9994 319.9994m0 63.99988a383.99928 383.99928 0 1 1 383.99928-383.99928 383.99928 383.99928 0 0 1-383.99928 383.99928zM991.99814-127.99807999999996a30.079944 30.079944 0 0 0-22.399958 9.599982l-351.99934 351.99934a31.679941 31.679941 0 0 0 44.799916 44.799916l351.99934-351.99934a30.719942 30.719942 0 0 0 0-44.799916 30.079944 30.079944 0 0 0-22.399958-9.599982z"  horiz-adv-x="1024" />

    
    <glyph glyph-name="_layertree" unicode="&#59634;" d="M509.44 350.72c-5.12 0-10.24 0-12.8 2.56L20.48 586.24c-15.36 7.68-23.04 25.6-15.36 40.96 5.12 10.24 12.8 15.36 20.48 17.92l471.04 171.52c7.68 2.56 15.36 2.56 23.04 0l473.6-171.52c15.36-5.12 25.6-23.04 20.48-38.4-2.56-7.68-7.68-15.36-17.92-17.92l-473.6-232.96c-5.12-5.12-10.24-5.12-12.8-5.12z m7.68 48.64z m-17.92 0zM87.04 611.84l422.4-209.92 422.4 209.92-422.4 153.6-422.4-153.6zM512 140.8L15.36 386.56c-12.8 5.12-17.92 23.04-12.8 35.84s23.04 17.92 35.84 12.8L512 197.12l476.16 235.52c12.8 5.12 28.16 0 33.28-12.8 5.12-12.8 0-25.6-10.24-33.28L512 140.8zM512-48.64L15.36 197.12c-12.8 7.68-17.92 23.04-10.24 35.84 5.12 12.8 20.48 17.92 33.28 10.24L512 7.68l473.6 235.52c12.8 5.12 28.16 0 33.28-12.8 5.12-12.8 0-25.6-10.24-33.28L512-48.64z"  horiz-adv-x="1024" />

    
    <glyph glyph-name="_layertree_txt" unicode="&#59636;" d="M998.4 896H25.6C10.24 896 0 883.2 0 870.4s10.24-25.6 25.6-25.6h460.8v-947.2c0-15.36 10.24-25.6 25.6-25.6s25.6 10.24 25.6 25.6V844.8h460.8c15.36 0 25.6 10.24 25.6 25.6s-10.24 25.6-25.6 25.6z"  horiz-adv-x="1024" />

    
    <glyph glyph-name="_layertree_shape" unicode="&#59637;" d="M980.48 40.96V716.8c43.52 30.72 53.76 87.04 23.04 130.56-30.72 40.96-87.04 51.2-130.56 23.04-10.24-7.68-17.92-15.36-25.6-25.6H174.08C148.48 888.32 89.6 903.68 46.08 878.08S-12.8 793.6 12.8 750.08c7.68-12.8 20.48-25.6 33.28-33.28v-673.28c-43.52-28.16-56.32-84.48-28.16-128 28.16-43.52 84.48-56.32 128-28.16 10.24 7.68 20.48 15.36 25.6 25.6h680.96c30.72-43.52 87.04-53.76 130.56-23.04 43.52 30.72 53.76 87.04 23.04 130.56-7.68 5.12-15.36 12.8-25.6 20.48zM926.72 837.12c23.04 0 40.96-17.92 40.96-43.52s-17.92-40.96-43.52-40.96c-23.04 0-40.96 17.92-40.96 40.96 2.56 23.04 20.48 40.96 43.52 43.52z m-829.44 0c23.04 0 40.96-17.92 40.96-40.96s-17.92-43.52-43.52-43.52S53.76 770.56 53.76 793.6s17.92 40.96 43.52 43.52z m0-919.04c-25.6 0-43.52 20.48-43.52 43.52s17.92 40.96 43.52 40.96 40.96-17.92 40.96-40.96c0-23.04-17.92-40.96-40.96-43.52z m92.16 43.52c0 51.2-40.96 94.72-92.16 94.72V701.44c51.2 0 89.6 40.96 92.16 92.16h645.12c0-51.2 43.52-92.16 94.72-92.16v-645.12c-51.2 0-92.16-40.96-92.16-94.72v-2.56l-647.68 2.56z m739.84-40.96c-23.04 0-40.96 20.48-40.96 43.52s20.48 40.96 43.52 40.96 40.96-20.48 40.96-40.96c0-25.6-17.92-43.52-43.52-43.52z"  horiz-adv-x="1024" />

    
    <glyph glyph-name="_manage_new" unicode="&#59638;" d="M480.019988 864.019988v-895.44035M927.740162 416.299813H32.299813M480.019988-63.400375000000054a31.980012 31.980012 0 0 0-31.980013 31.980013V864.019988a31.980012 31.980012 0 0 0 63.960025 0v-895.44035a31.980012 31.980012 0 0 0-31.980012-31.980013zM927.740162 384.3198H32.299813a31.980012 31.980012 0 0 0 0 63.960025h895.440349a31.980012 31.980012 0 0 0 0-63.960025z"  horiz-adv-x="1024" />

    
    <glyph glyph-name="_manage_addpeople" unicode="&#59639;" d="M975.36 128h-171.52v171.52c0 15.36-10.24 25.6-25.6 25.6s-25.6-10.24-25.6-25.6V128h-171.52c-15.36 0-25.6-10.24-25.6-25.6s10.24-25.6 25.6-25.6h171.52v-171.52c0-15.36 10.24-25.6 25.6-25.6s25.6 10.24 25.6 25.6V76.8h171.52c15.36 0 25.6 10.24 25.6 25.6s-12.8 25.6-25.6 25.6zM788.48 627.2C788.48 770.56 670.72 888.32 527.36 888.32S266.24 770.56 266.24 627.2c0-99.84 56.32-184.32 138.24-230.4C184.32 337.92 23.04 138.24 23.04-94.72c0-15.36 10.24-25.6 25.6-25.6s25.6 10.24 25.6 25.6c0 253.44 209.92 460.8 471.04 460.8h5.12c133.12 12.8 238.08 125.44 238.08 261.12z m-471.04 0c0 115.2 94.72 209.92 209.92 209.92s209.92-94.72 209.92-209.92-94.72-209.92-209.92-209.92-209.92 94.72-209.92 209.92z"  horiz-adv-x="1024" />

    
    <glyph glyph-name="_logo" unicode="&#59640;" d="M809.910857 208.34742900000003a49.334857 49.334857 0 0 1-78.921143 39.497142 431.542857 431.542857 0 0 0-437.357714 0.438858 49.334857 49.334857 0 1 1-54.528-82.176l-0.219429-0.402286a538.148571 538.148571 0 0 1 547.766858 0.512h-0.256a49.298286 49.298286 0 0 1 23.515428 42.130286zM1023.963429 13.238857000000053V763.794286A63.195429 63.195429 0 0 1 962.889143 822.857143a61.805714 61.805714 0 0 1-21.357714-3.657143L511.012571 657.7371430000001l-426.788571 160.914286a61.915429 61.915429 0 0 1-84.114286-57.746286v-749.385143h0.182857a51.638857 51.638857 0 0 1 103.277715 0.804571V700.781714l384.548571-145.188571a49.846857 49.846857 0 0 1 5.851429-2.194286l0.877714-0.329143h0.292571a50.066286 50.066286 0 0 1 26.989715 0h0.329143a49.846857 49.846857 0 0 1 5.778285 2.048l392.155429 139.337143v-682.934857h0.219428a51.638857 51.638857 0 0 1 103.277715 0.804571c0.109714 0.292571 0.073143 0.621714 0.073143 0.914286z"  horiz-adv-x="1024" />

    
    <glyph glyph-name="_manage_group" unicode="&#59641;" d="M51.2 463.36h348.16c23.04 0 40.96 17.92 40.96 40.96V852.48c0 23.04-17.92 40.96-40.96 40.96H51.2C28.16 893.44 10.24 875.52 10.24 852.48v-348.16c0-23.04 17.92-40.96 40.96-40.96z m10.24 378.88h327.68v-327.68H61.44V842.24zM399.36 307.2H51.2c-23.04 0-40.96-17.92-40.96-40.96v-348.16c0-23.04 17.92-40.96 40.96-40.96h348.16c23.04 0 40.96 17.92 40.96 40.96V266.24c0 23.04-17.92 40.96-40.96 40.96z m-10.24-378.88H61.44V256h327.68v-327.68zM983.04 304.64H634.88c-23.04 0-40.96-17.92-40.96-40.96v-348.16c0-23.04 17.92-40.96 40.96-40.96h348.16c23.04 0 40.96 17.92 40.96 40.96V263.68c0 23.04-17.92 40.96-40.96 40.96zM972.8-74.24H645.12V253.44H972.8v-327.68zM983.04 893.44H634.88c-23.04 0-40.96-17.92-40.96-40.96v-348.16c0-23.04 17.92-40.96 40.96-40.96h348.16c23.04 0 40.96 17.92 40.96 40.96V852.48c0 23.04-17.92 40.96-40.96 40.96zM972.8 514.56H645.12V842.24H972.8v-327.68z"  horiz-adv-x="1024" />

    
    <glyph glyph-name="_sketch_email" unicode="&#59643;" d="M931.84 821.76H89.6C40.96 821.76 0 780.8 0 732.16v-583.68c0-48.64 40.96-89.6 89.6-89.6h842.24c48.64 0 89.6 40.96 89.6 89.6V732.16c0 51.2-40.96 89.6-89.6 89.6z m-384-401.92c-30.72-23.04-64-23.04-97.28 0L53.76 721.92v10.24c0 23.04 15.36 38.4 35.84 38.4h842.24c20.48 0 38.4-17.92 38.4-38.4v-5.12m-38.4-614.4H89.6c-20.48 0-38.4 17.92-38.4 38.4V657.92L412.16 384c25.6-17.92 53.76-33.28 84.48-33.28 30.72 0 56.32 12.8 84.48 33.28L967.68 665.6v-517.12c2.56-20.48-15.36-35.84-35.84-35.84z"  horiz-adv-x="1024" />

    
    <glyph glyph-name="_tree_group" unicode="&#59644;" d="M927.740162-127.36040000000003h-831.480324A95.940037 95.940037 0 0 0 0.3198-31.420361999999955v767.5203A95.940037 95.940037 0 0 0 96.259838 832.039975h248.164897a95.300437 95.300437 0 0 0 85.706433-53.086821l92.742036-184.844472a32.619613 32.619613 0 0 1 28.782011-17.908807h376.084947A95.940037 95.940037 0 0 0 1023.6802 480.259838v-511.6802a95.940037 95.940037 0 0 0-95.940038-95.940038zM96.259838 768.07995a32.619613 32.619613 0 0 1-31.980013-31.980012v-767.5203a32.619613 32.619613 0 0 1 31.980013-31.980013h831.480324a32.619613 32.619613 0 0 1 31.980013 31.980013v511.6802a32.619613 32.619613 0 0 1-31.980013 31.980012H551.655215a95.300437 95.300437 0 0 0-85.706433 53.086821L373.206746 750.171143A32.619613 32.619613 0 0 1 344.424735 768.07995z"  horiz-adv-x="1024" />

    
    <glyph glyph-name="_nav_download" unicode="&#59645;" d="M493.130221 128.628993c5.031941-5.031941 10.063882-7.547912 17.611794-7.547912 7.547912 0 12.579853 2.515971 17.611793 7.547912 0 0 2.515971 0 2.515971 2.51597l166.054054 186.181818c10.063882 10.063882 7.547912 25.159705-2.515971 35.223588-10.063882 10.063882-25.159705 7.547912-35.223587-2.515971L528.353808 206.624079V870.840295c0 15.095823-10.063882 25.159705-25.159705 25.159705s-25.159705-10.063882-25.159705-25.159705v-661.700246l-138.378378 123.282555c-10.063882 10.063882-25.159705 7.547912-35.223588-2.51597-10.063882-10.063882-7.547912-25.159705 2.515971-35.223587l186.181818-166.054054zM852.914005 659.498771h-95.60688c-15.095823 0-25.159705-10.063882-25.159705-25.159705s10.063882-25.159705 25.159705-25.159705h95.60688c55.351351 0 103.154791-45.287469 103.154791-103.154791v-465.454545c0-55.351351-45.287469-103.154791-103.154791-103.154792H153.474201c-55.351351 0-103.154791 45.287469-103.154791 103.154792V508.540541c0 55.351351 45.287469 103.154791 103.154791 103.154791h95.60688c15.095823 0 25.159705 10.063882 25.159705 25.159705s-10.063882 25.159705-25.159705 25.159705H153.474201C67.931204 659.498771 0 591.567568 0 508.540541v-465.454546c0-85.542998 67.931204-153.474201 153.474201-153.474201h699.439804c85.542998 0 153.474201 67.931204 153.474201 153.474201V508.540541c0 83.027027-67.931204 150.958231-153.474201 150.95823z"  horiz-adv-x="1024" />

    
    <glyph glyph-name="_postil_circle" unicode="&#59646;" d="M512 844.8A460.8 460.8 0 1 0 51.2 384 460.8 460.8 0 0 0 512 844.8m0 51.2a512 512 0 1 1 512-512A512 512 0 0 1 512 896z"  horiz-adv-x="1024" />

    
    <glyph glyph-name="_tree_flag" unicode="&#59647;" d="M32.329773-128a31.978015 31.978015 0 0 0-31.978015 31.978015v543.626257a31.978015 31.978015 0 1 0 63.95603 0v-543.626257a31.978015 31.978015 0 0 0-31.978015-31.978015zM927.714196 319.69221200000004a30.059334 30.059334 0 0 0-22.38461 9.593404s-60.758229 54.362626-233.43951 54.362626a495.659234 495.659234 0 0 1-181.635126-30.059334 550.66142 550.66142 0 0 0-202.101056-33.896696 678.573481 678.573481 0 0 0-269.894447 35.175816 32.617575 32.617575 0 0 0-17.907689 28.780214v479.670227a32.617575 32.617575 0 0 0 16.628568 28.140653 32.617575 32.617575 0 0 0 33.257136 0 463.681219 463.681219 0 0 1 237.916432-60.118669 498.217475 498.217475 0 0 1 163.087877 28.140654 667.061395 667.061395 0 0 0 220.648305 35.815377c199.542814 0 271.173568-63.95603 278.208731-73.549435a30.059334 30.059334 0 0 0 9.593405-22.384611v-447.692211a31.978015 31.978015 0 0 0-19.82637-29.419774 27.501093 27.501093 0 0 0-12.151646-2.558241zM64.307788 406.032852a852.533883 852.533883 0 0 1 223.846106-22.38461 495.659234 495.659234 0 0 1 181.635126 30.059334 550.66142 550.66142 0 0 0 202.101056 33.896696 547.463619 547.463619 0 0 0 223.846105-39.013178v374.782337a412.516395 412.516395 0 0 1-223.846105 47.967022 601.826244 601.826244 0 0 1-201.461496-32.617575 554.498782 554.498782 0 0 0-182.274686-31.338455 571.76691 571.76691 0 0 0-223.846106 43.490101z"  horiz-adv-x="1024" />

    
    <glyph glyph-name="_tree_leftback" unicode="&#59648;" d="M227.84 386.56L686.08 842.24c10.24 10.24 10.24 25.6 0 35.84-10.24 10.24-25.6 10.24-35.84 0L176.64 407.04c-7.68-7.68-10.24-17.92-5.12-28.16 0-5.12 2.56-12.8 7.68-15.36l471.04-473.6c5.12-5.12 12.8-7.68 17.92-7.68 7.68 0 12.8 2.56 17.92 7.68 10.24 10.24 10.24 25.6 0 35.84l-458.24 460.8z"  horiz-adv-x="1024" />

    
    <glyph glyph-name="_postil_box" unicode="&#59649;" d="M963.84 844.8a9.216 9.216 0 0 0 8.96-8.96v-903.68a9.216 9.216 0 0 0-8.96-8.96H60.16a9.216 9.216 0 0 0-8.96 8.96V835.84A9.216 9.216 0 0 0 60.16 844.8h903.68m0 51.2H60.16A60.416 60.416 0 0 1 0 835.84v-903.68A60.416 60.416 0 0 1 60.16-128h903.68A60.416 60.416 0 0 1 1024-67.84V835.84A60.416 60.416 0 0 1 963.84 896z"  horiz-adv-x="1024" />

    
    <glyph glyph-name="_zoomin" unicode="&#59650;" d="M512 896C230.4 896 0 665.6 0 384s230.4-512 512-512 512 230.4 512 512S793.6 896 512 896z m0-972.8c-253.44 0-460.8 207.36-460.8 460.8S258.56 844.8 512 844.8s460.8-207.36 460.8-460.8-207.36-460.8-460.8-460.8zM770.56 419.84h-225.28V645.12c0 20.48-12.8 33.28-33.28 33.28s-33.28-12.8-33.28-33.28v-225.28H253.44c-20.48 0-33.28-12.8-33.28-33.28s12.8-33.28 33.28-33.28h225.28V128c0-20.48 12.8-33.28 33.28-33.28s33.28 12.8 33.28 33.28v225.28h225.28c20.48 0 33.28 12.8 33.28 33.28s-17.92 33.28-33.28 33.28z"  horiz-adv-x="1024" />

    
    <glyph glyph-name="_tree_phone" unicode="&#59651;" d="M2.56 650.24v-527.36c0-30.72 28.16-58.88 61.44-58.88h898.56c33.28 0 58.88 28.16 58.88 58.88V647.68c0 33.28-28.16 58.88-58.88 58.88H64C30.72 709.12 2.56 680.96 2.56 650.24z m207.36-535.04V657.92h568.32V115.2H209.92z m-156.16 7.68V647.68c0 5.12 5.12 7.68 7.68 7.68h94.72v-540.16H64c-5.12 0-10.24 5.12-10.24 7.68zM970.24 650.24v-527.36c0-5.12-5.12-7.68-7.68-7.68h-130.56V657.92h130.56c2.56 0 7.68-5.12 7.68-7.68zM906.24 386.56m-30.72 0a30.72 30.72 0 1 1 61.44 0 30.72 30.72 0 1 1-61.44 0Z"  horiz-adv-x="1024" />

    
    <glyph glyph-name="_tree" unicode="&#59652;" d="M936.96 885.76h-563.2c-48.64 0-87.04-38.4-87.04-87.04v-46.08c0-48.64 38.4-87.04 87.04-87.04h565.76c48.64 0 87.04 38.4 87.04 87.04V801.28C1024 847.36 985.6 885.76 936.96 885.76zM972.8 755.2c0-17.92-15.36-35.84-35.84-35.84h-563.2c-17.92 0-35.84 15.36-35.84 35.84V801.28c0 17.92 15.36 35.84 35.84 35.84h565.76c17.92-2.56 33.28-17.92 33.28-35.84v-46.08zM936.96 504.32H488.96c-46.08 0-84.48-35.84-84.48-81.92H143.36V663.04c53.76 12.8 92.16 58.88 92.16 115.2 0 64-51.2 117.76-117.76 117.76C53.76 896 0 842.24 0 778.24c0-56.32 40.96-104.96 92.16-115.2V25.6c0-15.36 10.24-25.6 25.6-25.6h284.16c2.56-46.08 38.4-81.92 84.48-81.92h448c48.64 0 87.04 38.4 87.04 87.04V51.2c0 48.64-38.4 87.04-87.04 87.04H488.96c-46.08 0-84.48-35.84-84.48-81.92H143.36V371.2h258.56c2.56-46.08 38.4-81.92 84.48-81.92h448c48.64 0 87.04 38.4 87.04 87.04v46.08c2.56 43.52-35.84 81.92-84.48 81.92zM51.2 778.24C51.2 814.08 81.92 844.8 117.76 844.8 153.6 844.8 184.32 814.08 184.32 778.24 184.32 742.4 153.6 711.68 117.76 711.68 81.92 711.68 51.2 742.4 51.2 778.24z m404.48-732.16c0 17.92 15.36 35.84 35.84 35.84h448c17.92 0 35.84-15.36 35.84-35.84V0c0-17.92-15.36-35.84-35.84-35.84H488.96c-17.92 0-35.84 15.36-35.84 35.84v46.08zM972.8 373.76c0-17.92-15.36-35.84-35.84-35.84H488.96c-17.92 0-35.84 15.36-35.84 35.84v46.08c0 17.92 15.36 35.84 35.84 35.84h448c17.92 0 35.84-15.36 35.84-35.84v-46.08z"  horiz-adv-x="1026" />

    
    <glyph glyph-name="_sketch_passport" unicode="&#59653;" d="M934.4 550.4H768v87.04c0 140.8-115.2 256-256 256s-256-115.2-256-256v-87.04H92.16C43.52 550.4 2.56 512 2.56 460.8v-496.64c0-48.64 40.96-89.6 89.6-89.6h844.8c48.64 0 89.6 40.96 89.6 89.6V460.8c-2.56 51.2-43.52 89.6-92.16 89.6zM307.2 637.44c0 112.64 92.16 204.8 204.8 204.8s204.8-92.16 204.8-204.8v-87.04H307.2v87.04z m665.6-673.28c0-20.48-17.92-38.4-38.4-38.4H92.16c-20.48 0-38.4 17.92-38.4 38.4V460.8c0 20.48 17.92 38.4 38.4 38.4h844.8c20.48 0 38.4-17.92 38.4-38.4L972.8-35.84zM512 314.88c-43.52-2.56-74.24-38.4-71.68-81.92 2.56-28.16 17.92-53.76 43.52-64v-112.64c0-15.36 12.8-28.16 28.16-28.16s28.16 12.8 28.16 28.16v112.64c38.4 17.92 56.32 64 38.4 102.4-12.8 23.04-38.4 40.96-66.56 43.52z"  horiz-adv-x="1026" />

    
    <glyph glyph-name="_nav_align" unicode="&#59656;" d="M908.8 314.88H130.56c-10.24 0-2.56-2.56 2.56-5.12v158.72h542.72c48.64 0 89.6 40.96 89.6 89.6v53.76c0 48.64-40.96 89.6-89.6 89.6H133.12V870.4c0 15.36-10.24 25.6-25.6 25.6s-25.6-10.24-25.6-25.6v-972.8c0-15.36 10.24-25.6 25.6-25.6s25.6 10.24 25.6 25.6v192c-5.12 2.56-12.8-5.12-2.56-5.12h775.68c56.32 0 102.4 46.08 102.4 102.4v23.04c2.56 58.88-43.52 104.96-99.84 104.96z m-235.52 332.8c20.48 0 38.4-17.92 38.4-38.4v-53.76c0-20.48-17.92-38.4-38.4-38.4H133.12v128l540.16 2.56z m286.72-460.8c0-28.16-23.04-51.2-51.2-51.2H133.12V232.96v28.16h773.12c28.16 0 53.76-23.04 53.76-51.2v-23.04z"  horiz-adv-x="1024" />

    
    <glyph glyph-name="_nav_more" unicode="&#59657;" d="M514.547264 827.223881m-68.77612 0a68.776119 68.776119 0 1 1 137.552239 0 68.776119 68.776119 0 1 1-137.552239 0ZM514.547264 386.547264m-68.77612 0a68.776119 68.776119 0 1 1 137.552239 0 68.776119 68.776119 0 1 1-137.552239 0ZM514.547264-54.129353m-68.77612 0a68.776119 68.776119 0 1 1 137.552239 0 68.776119 68.776119 0 1 1-137.552239 0Z"  horiz-adv-x="1024" />

    
    <glyph glyph-name="_preview_back" unicode="&#59658;" d="M266.24 394.24l386.56 384c20.48 20.48 20.48 48.64 0 66.56-20.48 20.48-48.64 20.48-66.56 0L163.84 430.08c-10.24-12.8-15.36-30.72-10.24-46.08 2.56-10.24 5.12-20.48 15.36-28.16l414.72-417.28c10.24-10.24 20.48-15.36 33.28-15.36s23.04 5.12 33.28 15.36c20.48 20.48 20.48 48.64 0 66.56l-384 389.12z"  horiz-adv-x="1024" />

    
    <glyph glyph-name="_ps_clipping" unicode="&#59659;" d="M998.4-20.992h-36.096V785.92H998.4a25.6 25.6 0 0 1 0 51.2h-36.096V870.4a25.6 25.6 0 0 1-51.2 0v-33.28H119.296V870.4a25.6 25.6 0 0 1-51.2 0v-33.28H25.6a25.6 25.6 0 0 1 0-51.2h42.496v-806.912H25.6a25.6 25.6 0 0 1 0-51.2h42.496V-102.4a25.6 25.6 0 0 1 51.2 0v30.208h791.808V-102.4a25.6 25.6 0 0 1 51.2 0v30.208H998.4a25.6 25.6 0 0 1 0 51.2z m-879.104 0V785.92h791.808v-806.912zM340.736 488.192a123.392 123.392 0 1 1-123.648 123.648 123.648 123.648 0 0 1 123.648-123.648z m0 195.84a72.192 72.192 0 1 0-72.192-72.192 72.448 72.448 0 0 0 72.192 72.192zM470.528 276.736a25.6 25.6 0 0 1 32.512 39.424l-58.112 47.872a46.592 46.592 0 0 1-57.344 1.536l-210.176-153.6a25.6 25.6 0 0 1 30.464-41.216l207.36 153.6zM849.92 199.168l-128 137.216a46.592 46.592 0 0 1-60.928 6.144l-295.68-211.2a25.6 25.6 0 0 1 29.696-41.728l292.608 208.64 124.928-134.144a25.6 25.6 0 0 1 37.376 34.816z"  horiz-adv-x="1024" />

    
    <glyph glyph-name="_tree_rightback" unicode="&#59660;" d="M650.24 381.44L194.56-74.24c-10.24-10.24-10.24-25.6 0-35.84 10.24-10.24 25.6-10.24 35.84 0L704 358.4c7.68 7.68 10.24 17.92 5.12 28.16 0 5.12-2.56 12.8-7.68 15.36L230.4 878.08C225.28 883.2 220.16 885.76 212.48 885.76c-7.68 0-12.8-2.56-17.92-7.68-10.24-10.24-10.24-25.6 0-35.84l455.68-460.8z"  horiz-adv-x="1024" />

    
    <glyph glyph-name="_ps_more" unicode="&#59661;" d="M71.68 389.12m-69.12 0a69.12 69.12 0 1 1 138.24 0 69.12 69.12 0 1 1-138.24 0ZM514.56 389.12m-69.12 0a69.12 69.12 0 1 1 138.24 0 69.12 69.12 0 1 1-138.24 0ZM957.44 389.12m-69.12 0a69.12 69.12 0 1 1 138.24 0 69.12 69.12 0 1 1-138.24 0Z"  horiz-adv-x="1026" />

    
    <glyph glyph-name="_tree_index" unicode="&#59662;" d="M975.36 427.52H158.72c-20.48 0-38.4-15.36-40.96-35.84l-61.44-222.72V727.04c0 28.16 23.04 48.64 48.64 48.64h245.76l97.28-179.2h360.96c35.84 0 64-53.76 64-89.6v-20.48c0-15.36 10.24-25.6 25.6-25.6s25.6 10.24 25.6 25.6v20.48c0 64-51.2 140.8-115.2 140.8H481.28l-97.28 179.2H107.52C51.2 826.88 5.12 783.36 5.12 727.04v-739.84c0-7.68 2.56-12.8 7.68-17.92 7.68-15.36 20.48-25.6 38.4-28.16h814.08c20.48 0 38.4 15.36 40.96 35.84l107.52 389.12c7.68 25.6-5.12 53.76-30.72 61.44h-7.68z m-115.2-435.2H58.88l107.52 386.56h798.72l-104.96-386.56z"  horiz-adv-x="1024" />

    
    <glyph glyph-name="_postil_mouse" unicode="&#59663;" d="M824.32 335.36L547.84 614.4 276.48 885.76c-7.68 7.68-20.48 5.12-23.04-12.8V870.4l-2.56-376.32L248.32 102.4c0-10.24 12.8-12.8 20.48-7.68l168.96 130.56 138.24-337.92c5.12-10.24 15.36-15.36 25.6-10.24l128 51.2c5.12 2.56 7.68 5.12 10.24 10.24 2.56 2.56 2.56 10.24 0 15.36l-138.24 337.92 212.48 25.6c7.68 2.56 10.24 5.12 12.8 7.68 2.56 2.56 0 7.68-2.56 10.24z m-227.84-2.56l-53.76-5.12 20.48-51.2 130.56-320-87.04-35.84-130.56 320-20.48 51.2-40.96-30.72-122.88-97.28 2.56 330.24V808.96l225.28-225.28 232.96-235.52-156.16-15.36z"  horiz-adv-x="1024" />

    
    <glyph glyph-name="_postil_dialog" unicode="&#59664;" d="M512 860.16C230.4 860.16 0 660.48 0 417.28c0-115.2 51.2-225.28 133.12-302.08l-12.8-204.8c0-7.68 12.8-12.8 20.48-12.8l171.52 110.08c64-25.6 128-33.28 197.12-33.28 281.6 0 512 199.68 512 442.88S793.6 860.16 512 860.16zM256 314.88c-51.2 0-97.28 43.52-97.28 97.28S204.8 506.88 256 506.88s97.28-43.52 97.28-94.72-46.08-97.28-97.28-97.28z m256 0c-51.2 0-97.28 43.52-97.28 97.28s46.08 94.72 97.28 94.72 97.28-43.52 97.28-94.72-46.08-97.28-97.28-97.28z m256 0c-51.2 0-97.28 43.52-97.28 97.28s46.08 94.72 97.28 94.72 97.28-43.52 97.28-94.72-46.08-97.28-97.28-97.28z"  horiz-adv-x="1024" />

    
    <glyph glyph-name="_nav_play" unicode="&#59665;" d="M880.64 407.04L40.96 885.76C25.6 898.56 0 885.76 0 865.28v-960c0-20.48 25.6-33.28 40.96-25.6l842.24 483.84c17.92 5.12 17.92 30.72-2.56 43.52z"  horiz-adv-x="1024" />

    
    <glyph glyph-name="_zoomout" unicode="&#59666;" d="M512 896C230.4 896 0 665.6 0 384s230.4-512 512-512 512 230.4 512 512S793.6 896 512 896z m0-972.8c-253.44 0-460.8 207.36-460.8 460.8S258.56 844.8 512 844.8s460.8-207.36 460.8-460.8-207.36-460.8-460.8-460.8zM770.56 417.28H253.44c-20.48 0-33.28-12.8-33.28-33.28s12.8-33.28 33.28-33.28h517.12c20.48 0 33.28 12.8 33.28 33.28s-12.8 33.28-33.28 33.28z"  horiz-adv-x="1024" />

    
    <glyph glyph-name="_nav_people" unicode="&#59667;" d="M976.758105 438.902743h-168.538654v114.912718h168.538654c15.321696 0 25.53616 10.214464 25.536159 25.53616s-10.214464 25.53616-25.536159 25.53616h-194.074813c-15.321696 0-25.53616-10.214464-25.53616-25.53616v-349.845387c-86.822943-12.76808-153.216958-86.822943-153.216957-178.753117 0-99.591022 79.162095-178.753117 178.753117-178.753117s178.753117 79.162095 178.753117 178.753117c0 89.376559-66.394015 165.985037-153.216958 178.753117V387.830424h168.538654c15.321696 0 25.53616 10.214464 25.536159 25.53616s-10.214464 25.53616-25.536159 25.536159zM912.917706 53.306733c0-71.501247-58.733167-127.680798-127.680798-127.680798s-127.680798 58.733167-127.680798 127.680798c0 71.501247 58.733167 127.680798 127.680798 127.680798s127.680798-56.179551 127.680798-127.680798zM698.413965 658.513716C698.413965 788.74813 591.162095 896 460.927681 896c-130.234414 0-237.486284-107.25187-237.486284-237.486284 0-89.376559 48.518703-165.985037 120.01995-206.842893C146.832918 385.276808 3.830424 168.219451 3.830424-97.356608c0-15.321696 10.214464-25.53616 25.53616-25.53616s25.53616 10.214464 25.536159 25.53616c0 291.112219 183.860349 518.38404 418.793018 518.384039h2.553616c125.127182 7.660848 222.164589 109.805486 222.164588 237.486285z m-421.346633 0c0 102.144638 84.269327 186.413965 186.413965 186.413965s186.413965-84.269327 186.413965-186.413965-84.269327-186.413965-186.413965-186.413965-186.413965 81.715711-186.413965 186.413965z"  horiz-adv-x="1024" />

    
    <glyph glyph-name="_zoomin_pressed" unicode="&#59668;" d="M512 896C230.4 896 0 665.6 0 384s230.4-512 512-512 512 230.4 512 512S793.6 896 512 896z m258.56-542.72h-225.28V128c0-20.48-12.8-33.28-33.28-33.28s-33.28 12.8-33.28 33.28v225.28H253.44c-20.48 0-33.28 12.8-33.28 33.28s12.8 33.28 33.28 33.28h225.28V645.12c0 20.48 12.8 33.28 33.28 33.28s33.28-12.8 33.28-33.28v-225.28h225.28c17.92 0 33.28-12.8 33.28-33.28s-12.8-33.28-33.28-33.28z"  horiz-adv-x="1024" />

    
    <glyph glyph-name="_ps_uploadpic" unicode="&#59669;" d="M990.72 145.92h-174.08v174.08c0 17.92-10.24 30.72-25.6 30.72s-25.6-12.8-25.6-30.72v-174.08h-174.08c-17.92 0-30.72-10.24-30.72-25.6s12.8-25.6 30.72-25.6h174.08v-174.08c0-17.92 10.24-30.72 25.6-30.72s25.6 12.8 25.6 30.72v174.08h174.08c15.36 0 30.72 10.24 30.72 25.6s-12.8 25.6-30.72 25.6zM412.16 66.56H117.76c-64 0-115.2 51.2-115.2 115.2V762.88C2.56 826.88 53.76 878.08 117.76 878.08h788.48c64 0 115.2-51.2 115.2-115.2v-348.16c0-15.36-10.24-25.6-25.6-25.6s-25.6 10.24-25.6 25.6V762.88c0 35.84-28.16 64-64 64H117.76c-35.84 0-64-28.16-64-64v-581.12c0-35.84 28.16-64 64-64h294.4c15.36 0 25.6-10.24 25.6-25.6s-10.24-25.6-25.6-25.6zM291.84 709.12c48.64 0 87.04-38.4 87.04-87.04s-38.4-87.04-87.04-87.04S204.8 570.88 204.8 619.52s38.4 89.6 87.04 89.6m0 51.2c-76.8 0-138.24-64-138.24-140.8s61.44-138.24 138.24-138.24 138.24 61.44 138.24 138.24-61.44 140.8-138.24 140.8zM284.16 245.76c-7.68 0-15.36 2.56-20.48 10.24-7.68 10.24-5.12 28.16 5.12 35.84l207.36 153.6c17.92 12.8 40.96 12.8 56.32-2.56l58.88-48.64c10.24-10.24 12.8-25.6 2.56-35.84s-25.6-12.8-35.84-2.56l-53.76 46.08-204.8-151.04c-5.12-5.12-10.24-5.12-15.36-5.12z"  horiz-adv-x="1024" />

    
    <glyph glyph-name="_postil_history" unicode="&#59670;" d="M512 844.8c253.44 0 460.8-207.36 460.8-460.8s-207.36-460.8-460.8-460.8S51.2 130.56 51.2 384 258.56 844.8 512 844.8m0 51.2C230.4 896 0 665.6 0 384s230.4-512 512-512 512 230.4 512 512S793.6 896 512 896zM752.64 179.2L537.6 394.24V704c0 15.36-10.24 25.6-25.6 25.6s-25.6-10.24-25.6-25.6v-317.44c0-7.68 2.56-15.36 7.68-20.48l222.72-222.72c5.12-5.12 12.8-7.68 17.92-7.68s12.8 2.56 17.92 7.68c10.24 10.24 10.24 25.6 0 35.84z"  horiz-adv-x="1024" />

    
    <glyph glyph-name="_tag_percent" unicode="&#59671;" d="M512 896C230.4 896 0 665.6 0 384s230.4-512 512-512 512 230.4 512 512S793.6 896 512 896zM51.2 384c0 253.44 207.36 460.8 460.8 460.8v-921.6c-253.44 0-460.8 207.36-460.8 460.8z"  horiz-adv-x="1024" />

    
    <glyph glyph-name="_tag_percent1" unicode="&#59672;" d="M1024 384C1024 665.6 793.6 896 512 896S0 665.6 0 384s230.4-512 512-512 509.44 227.84 512 512zM512-76.8c-253.44 0-460.8 207.36-460.8 460.8S258.56 844.8 512 844.8v-463.36h460.8C970.24 128 765.44-76.8 512-76.8z"  horiz-adv-x="1024" />

    
    <glyph glyph-name="_zoomout_pressed" unicode="&#59673;" d="M513.276808 896c-280.897756 0-510.723192-229.825436-510.723192-510.723192s229.825436-510.723192 510.723192-510.723192 510.723192 229.825436 510.723192 510.723192-229.825436 510.723192-510.723192 510.723192z m257.915212-543.9202H255.361596c-20.428928 0-33.197007 12.76808-33.197007 33.197008s12.76808 33.197007 33.197007 33.197007h515.830424c20.428928 0 33.197007-12.76808 33.197007-33.197007s-12.76808-33.197007-33.197007-33.197008z"  horiz-adv-x="1026" />

    
    <glyph glyph-name="_tag_percent2" unicode="&#59674;" d="M512 384m-512 0a512 512 0 1 1 1024 0 512 512 0 1 1-1024 0Z"  horiz-adv-x="1024" />

    
    <glyph glyph-name="_tag_clock" unicode="&#59676;" d="M512 896C230.4 896 0 665.6 0 384s230.4-512 512-512 512 230.4 512 512S793.6 896 512 896z m261.12-768c-7.68-7.68-17.92-10.24-28.16-10.24s-20.48 2.56-28.16 10.24l-222.72 222.72c-7.68 7.68-10.24 17.92-10.24 28.16V698.88c0 20.48 17.92 38.4 38.4 38.4s38.4-17.92 38.4-38.4v-304.64l212.48-212.48c15.36-12.8 15.36-38.4 0-53.76z"  horiz-adv-x="1024" />

    
    <glyph glyph-name="_tag_play" unicode="&#59677;" d="M512 896C230.4 896 0 665.6 0 384s230.4-512 512-512 512 230.4 512 512S793.6 896 512 896z m296.96-522.24L376.32 61.44c-7.68-5.12-20.48 0-20.48 10.24V696.32c0 10.24 12.8 15.36 20.48 10.24l432.64-312.32c7.68-5.12 7.68-15.36 0-20.48z"  horiz-adv-x="1024" />

    
    <glyph glyph-name="_tag_exclamation" unicode="&#59678;" d="M512 896C230.4 896 0 665.6 0 384s230.4-512 512-512 512 230.4 512 512S793.6 896 512 896z m0-867.84c-28.16 0-51.2 23.04-51.2 51.2s23.04 51.2 51.2 51.2 51.2-23.04 51.2-51.2-23.04-51.2-51.2-51.2z m33.28 220.16c2.56-17.92-7.68-30.72-25.6-30.72h-15.36c-15.36 0-25.6 12.8-25.6 25.6L450.56 716.8c0 15.36 12.8 25.6 25.6 25.6h69.12c15.36 0 25.6-12.8 25.6-25.6l-25.6-468.48z"  horiz-adv-x="1024" />

    
    <glyph glyph-name="_tag_resolved" unicode="&#59679;" d="M512 896C230.4 896 0 665.6 0 384s230.4-512 512-512 512 230.4 512 512S793.6 896 512 896z m358.4-325.12L445.44 145.92s0-2.56-2.56-2.56c-7.68-7.68-17.92-10.24-28.16-10.24-10.24 0-20.48 2.56-28.16 10.24 0 0 0 2.56-2.56 2.56l-230.4 235.52c-15.36 15.36-15.36 38.4 0 53.76s38.4 15.36 53.76 0l209.92-209.92 399.36 399.36c15.36 15.36 38.4 15.36 53.76 0s15.36-38.4 0-53.76z"  horiz-adv-x="1024" />

    
    <glyph glyph-name="_tag_three" unicode="&#59680;" d="M512 896C230.4 896 0 665.6 0 384s230.4-512 512-512 512 230.4 512 512S793.6 896 512 896z m92.16-747.52c-30.72-30.72-69.12-46.08-117.76-48.64-38.4 0-69.12 12.8-99.84 38.4-28.16 25.6-48.64 61.44-56.32 107.52H409.6c7.68-17.92 17.92-33.28 30.72-46.08s30.72-17.92 51.2-17.92c23.04 0 43.52 7.68 58.88 25.6 15.36 15.36 23.04 35.84 25.6 64 0 28.16-7.68 51.2-25.6 66.56-15.36 15.36-35.84 23.04-58.88 23.04h-33.28v71.68H486.4c25.6 0 48.64 7.68 61.44 23.04 15.36 15.36 23.04 33.28 23.04 58.88 0 23.04-7.68 43.52-23.04 58.88-15.36 15.36-33.28 23.04-56.32 23.04-17.92 0-33.28-5.12-46.08-17.92-15.36-10.24-23.04-28.16-28.16-51.2h-79.36c5.12 40.96 20.48 76.8 48.64 104.96 28.16 28.16 61.44 43.52 102.4 43.52 48.64 0 89.6-17.92 117.76-48.64 28.16-30.72 43.52-69.12 43.52-112.64 0-20.48-5.12-43.52-12.8-64-10.24-20.48-25.6-38.4-48.64-53.76 23.04-15.36 40.96-33.28 51.2-56.32 10.24-20.48 15.36-43.52 15.36-69.12-2.56-51.2-17.92-92.16-51.2-122.88z"  horiz-adv-x="1024" />

    
    <glyph glyph-name="_new_empty" unicode="&#59681;" d="M967.68 550.4L647.68 888.32l-5.12 5.12S640 893.44 640 896H153.6C94.72 896 48.64 847.36 48.64 791.04v-811.52C48.64-79.36 94.72-128 153.6-128h716.8c58.88 0 104.96 48.64 104.96 104.96V532.48c0 7.68-2.56 12.8-7.68 17.92z m-312.32 256l235.52-248.32h-181.76c-30.72 0-53.76 25.6-53.76 53.76V806.4zM870.4-76.8H153.6c-30.72 0-53.76 25.6-53.76 53.76V791.04C99.84 819.2 122.88 844.8 153.6 844.8h450.56v-232.96c0-58.88 48.64-104.96 104.96-104.96h215.04v-527.36c0-30.72-23.04-56.32-53.76-56.32zM752.64 337.92H537.6v215.04c0 15.36-10.24 25.6-25.6 25.6s-25.6-10.24-25.6-25.6v-215.04h-215.04c-15.36 0-25.6-10.24-25.6-25.6s10.24-25.6 25.6-25.6H486.4v-215.04c0-15.36 10.24-25.6 25.6-25.6s25.6 10.24 25.6 25.6v215.04h215.04c15.36 0 25.6 10.24 25.6 25.6s-12.8 25.6-25.6 25.6z"  horiz-adv-x="1024" />

    
    <glyph glyph-name="_tag_happy" unicode="&#59682;" d="M512 896C230.4 896 0 665.6 0 384s230.4-512 512-512 512 230.4 512 512S793.6 896 512 896z m199.68-296.96c51.2 0 89.6-40.96 89.6-89.6 0-51.2-40.96-89.6-89.6-89.6s-89.6 40.96-89.6 89.6c-2.56 48.64 38.4 89.6 89.6 89.6z m-399.36 0c51.2 0 89.6-40.96 89.6-89.6 0-51.2-40.96-89.6-89.6-89.6S222.72 460.8 222.72 509.44s40.96 89.6 89.6 89.6z m504.32-378.88c-48.64-122.88-168.96-207.36-302.08-207.36-133.12 0-253.44 84.48-302.08 207.36-7.68 20.48 2.56 40.96 23.04 48.64 20.48 7.68 40.96-2.56 48.64-23.04 35.84-94.72 128-158.72 230.4-158.72s194.56 64 230.4 158.72c7.68 20.48 30.72 30.72 48.64 23.04 20.48-5.12 30.72-28.16 23.04-48.64z"  horiz-adv-x="1024" />

    
    <glyph glyph-name="_add_pic" unicode="&#59683;" d="M929.28 816.64H94.72C43.52 816.64 0 780.8 0 734.72v-716.8c0-46.08 43.52-81.92 94.72-81.92h834.56c51.2 0 94.72 35.84 94.72 81.92v716.8c0 46.08-43.52 81.92-94.72 81.92zM972.8 20.48c0-20.48-20.48-35.84-43.52-35.84H94.72c-23.04 0-43.52 15.36-43.52 35.84v716.8c0 20.48 20.48 35.84 43.52 35.84h834.56c23.04 0 43.52-17.92 43.52-35.84v-716.8zM481.28 258.56c10.24-10.24 25.6-7.68 35.84 2.56s7.68 25.6-2.56 35.84l-61.44 51.2c-17.92 15.36-40.96 15.36-58.88 2.56l-220.16-161.28c-10.24-7.68-12.8-25.6-5.12-35.84 5.12-7.68 12.8-10.24 20.48-10.24 5.12 0 10.24 2.56 15.36 2.56l217.6 161.28 58.88-48.64zM739.84 314.88c-15.36 15.36-40.96 17.92-61.44 5.12l-309.76-220.16c-10.24-7.68-12.8-23.04-5.12-35.84 5.12-7.68 12.8-10.24 20.48-10.24 5.12 0 10.24 0 12.8 2.56l307.2 220.16 130.56-140.8c10.24-10.24 25.6-10.24 35.84 0 12.8 10.24 12.8 25.6 2.56 35.84l-133.12 143.36zM266.24 404.48c66.56 0 117.76 53.76 117.76 117.76S330.24 640 266.24 640s-117.76-53.76-117.76-117.76 51.2-117.76 117.76-117.76z m0 184.32c38.4 0 66.56-30.72 66.56-66.56 0-38.4-30.72-66.56-66.56-66.56S199.68 486.4 199.68 522.24c0 35.84 28.16 66.56 66.56 66.56z"  horiz-adv-x="1024" />

    
    <glyph glyph-name="_add_psd" unicode="&#59684;" d="M366.08 337.92c0-61.44-48.64-81.92-97.28-81.92H235.52v-97.28H179.2V417.28h92.16c64 0 94.72-30.72 94.72-79.36z m-97.28-38.4c25.6 0 43.52 10.24 43.52 35.84 0 33.28-23.04 33.28-51.2 33.28h-25.6v-71.68h33.28v2.56zM401.92 217.6c25.6-10.24 53.76-15.36 76.8-15.36 23.04 0 38.4 12.8 38.4 28.16 0 17.92-15.36 28.16-40.96 38.4-43.52 15.36-84.48 28.16-84.48 81.92 0 51.2 46.08 74.24 97.28 74.24 28.16 0 56.32-7.68 76.8-15.36l-10.24-46.08c-23.04 10.24-48.64 15.36-64 15.36-23.04 0-38.4-7.68-38.4-28.16 0-17.92 23.04-28.16 48.64-35.84 46.08-15.36 76.8-38.4 76.8-79.36 0-48.64-38.4-79.36-92.16-79.36-35.84 0-71.68 7.68-94.72 17.92l10.24 43.52zM619.52 417.28h92.16c89.6 0 128-53.76 128-130.56 0-87.04-48.64-130.56-135.68-130.56h-84.48V417.28z m53.76-217.6h25.6c48.64 0 81.92 15.36 81.92 87.04 0 69.12-28.16 87.04-79.36 87.04h-28.16v-174.08zM967.68 550.4L647.68 888.32l-5.12 5.12S640 893.44 640 896H153.6C94.72 896 48.64 847.36 48.64 791.04v-811.52C48.64-79.36 94.72-128 153.6-128h716.8c58.88 0 104.96 48.64 104.96 104.96V532.48c0 7.68-2.56 12.8-7.68 17.92z m-312.32 256l235.52-248.32h-181.76c-30.72 0-53.76 25.6-53.76 53.76V806.4zM870.4-76.8H153.6c-30.72 0-53.76 25.6-53.76 53.76V791.04C99.84 819.2 122.88 844.8 153.6 844.8h450.56v-232.96c0-58.88 48.64-104.96 104.96-104.96h215.04v-527.36c0-30.72-23.04-56.32-53.76-56.32z"  horiz-adv-x="1024" />

    
    <glyph glyph-name="_tag_sad" unicode="&#59685;" d="M512 896C230.4 896 0 665.6 0 384s230.4-512 512-512 512 230.4 512 512S793.6 896 512 896z m-199.68-296.96c51.2 0 89.6-40.96 89.6-89.6 0-51.2-40.96-89.6-89.6-89.6-51.2 0-89.6 40.96-89.6 89.6s40.96 89.6 89.6 89.6z m460.8-519.68c-7.68-5.12-15.36-7.68-20.48-7.68-12.8 0-23.04 5.12-30.72 17.92-28.16 38.4-128 87.04-209.92 87.04-97.28 0-179.2-43.52-209.92-87.04-12.8-17.92-35.84-23.04-53.76-10.24-17.92 12.8-23.04 35.84-10.24 53.76 48.64 71.68 161.28 120.32 273.92 120.32 89.6 0 225.28-48.64 273.92-120.32 10.24-17.92 5.12-40.96-12.8-53.76z m-61.44 337.92c-51.2 0-89.6 40.96-89.6 89.6 0 51.2 40.96 89.6 89.6 89.6 51.2 0 89.6-40.96 89.6-89.6s-40.96-89.6-89.6-89.6z"  horiz-adv-x="1024" />

    
    <glyph glyph-name="_tag_set" unicode="&#59686;" d="M865.28 304.64c15.36 66.56 66.56 112.64 128 122.88-5.12 51.2-15.36 97.28-33.28 140.8-58.88-15.36-125.44 2.56-166.4 53.76-38.4 48.64-43.52 117.76-17.92 171.52-40.96 25.6-84.48 46.08-128 61.44-25.6-53.76-79.36-89.6-143.36-89.6-61.44 0-112.64 33.28-140.8 81.92-46.08-15.36-89.6-38.4-128-66.56 20.48-51.2 12.8-112.64-25.6-158.72-35.84-43.52-92.16-64-143.36-58.88-17.92-46.08-28.16-92.16-35.84-143.36 51.2-17.92 89.6-58.88 102.4-115.2S128 192 89.6 153.6c25.6-43.52 53.76-81.92 89.6-115.2 46.08 30.72 104.96 35.84 158.72 10.24s87.04-79.36 89.6-135.68c28.16-5.12 56.32-7.68 84.48-7.68 20.48 0 40.96 0 58.88 2.56 0 58.88 33.28 112.64 89.6 140.8 58.88 28.16 128 17.92 174.08-20.48 35.84 30.72 66.56 69.12 92.16 110.08-51.2 38.4-76.8 102.4-61.44 166.4z m-202.24 71.68c0-87.04-69.12-156.16-156.16-156.16-69.12 0-130.56 46.08-148.48 110.08-5.12 15.36-7.68 30.72-7.68 48.64 0 87.04 69.12 156.16 156.16 156.16s156.16-69.12 156.16-156.16v-2.56c0 2.56 0 0 0 0z"  horiz-adv-x="1024" />

    
    <glyph glyph-name="_add_sketch" unicode="&#59687;" d="M1011.2 504.32l-17.92 25.6-230.4 340.48-253.44 17.92L256 870.4 25.6 529.92l-15.36-23.04 23.04-28.16L512-120.32l478.72 599.04 20.48 25.6zM732.16 821.76l199.68-291.84h-186.88l-12.8 294.4v-2.56z m-409.6-343.04h378.88L512 15.36l-189.44 463.36zM688.64 826.88l12.8-250.88-158.72 258.56 145.92-7.68z m-179.2-33.28l171.52-263.68H337.92L509.44 793.6z m-181.76 33.28l148.48 7.68-158.72-261.12 10.24 253.44zM87.04 529.92l199.68 291.84 2.56 2.56-15.36-296.96H245.76l-158.72 2.56z m10.24-51.2H266.24l176.64-432.64L97.28 478.72z m483.84-432.64l176.64 432.64h171.52L581.12 46.08z"  horiz-adv-x="1024" />

    
    <glyph glyph-name="_tag_question" unicode="&#59688;" d="M512 896C230.4 896 0 665.6 0 384s230.4-512 512-512 512 230.4 512 512S793.6 896 512 896z m-5.12-857.6c-28.16 0-51.2 23.04-51.2 51.2s23.04 51.2 51.2 51.2 51.2-23.04 51.2-51.2-23.04-51.2-51.2-51.2z m171.52 460.8c-12.8-48.64-43.52-71.68-69.12-94.72-33.28-28.16-64-51.2-64-143.36 0-20.48-17.92-38.4-38.4-38.4s-38.4 17.92-38.4 38.4c0 125.44 51.2 168.96 92.16 202.24 20.48 17.92 38.4 30.72 43.52 56.32 10.24 38.4 7.68 71.68-10.24 94.72-17.92 23.04-46.08 35.84-79.36 35.84-58.88 0-94.72-33.28-104.96-94.72-2.56-20.48-23.04-35.84-43.52-33.28-20.48 2.56-35.84 23.04-33.28 43.52 15.36 99.84 84.48 161.28 181.76 161.28 56.32 0 110.08-25.6 140.8-66.56 25.6-28.16 46.08-79.36 23.04-161.28z"  horiz-adv-x="1024" />

    
    <glyph glyph-name="_tag_flag" unicode="&#59689;" d="M927.683168 830.09901l-159.683168 38.019802c-68.435644 15.207921-139.405941 12.673267-205.306931-12.673267l-76.039604-27.881189c-73.50495-25.346535-152.079208-32.950495-228.118812-22.811881l-159.683168 20.277228c-5.069307 0-10.138614-2.534653-10.138614-10.138614V-102.653465c0-15.207921 10.138614-25.346535 25.346535-25.346535s25.346535 10.138614 25.346535 25.346535V295.287129l121.663366-17.742575c76.039604-10.138614 154.613861-2.534653 225.584158 22.811882l76.039604 27.881188c65.90099 22.811881 136.871287 27.881188 205.306931 12.673267l154.613861-35.485148c7.60396-2.534653 15.207921 5.069307 15.207921 12.673267V817.425743c-2.534653 5.069307-5.069307 10.138614-10.138614 12.673267z"  horiz-adv-x="1024" />

    
    <glyph glyph-name="_tag_like" unicode="&#59690;" d="M970.24 601.6s-243.2-15.36-373.76-15.36c-33.28 0-94.72 0-89.6 10.24 28.16 76.8 23.04 125.44 15.36 163.84-20.48 92.16-79.36 115.2-115.2 110.08-28.16-2.56-48.64-43.52-38.4-138.24s-38.4-102.4-56.32-120.32c-10.24-10.24-56.32-12.8-94.72-12.8-56.32 0-120.32 2.56-120.32 2.56-25.6 0-48.64-23.04-48.64-51.2v-496.64c0-28.16 20.48-51.2 48.64-51.2h770.56c23.04 0 43.52 17.92 46.08 40.96l102.4 494.08c7.68 33.28-15.36 64-46.08 64zM256 30.72c0-15.36-20.48-25.6-33.28-25.6s-33.28 10.24-33.28 25.6v537.6c0 15.36 17.92 25.6 33.28 25.6 15.36 0 33.28-10.24 33.28-25.6v-537.6z"  horiz-adv-x="1024" />

    
    <glyph glyph-name="_tag_unlike" unicode="&#59691;" d="M74.24 199.68s243.2 15.36 373.76 15.36c33.28 0 94.72 0 89.6-10.24-28.16-76.8-23.04-125.44-15.36-163.84 20.48-92.16 79.36-115.2 115.2-110.08 28.16 2.56 48.64 43.52 38.4 138.24s38.4 102.4 56.32 120.32c10.24 10.24 56.32 12.8 94.72 12.8 56.32 0 120.32-2.56 120.32-2.56 25.6 0 48.64 23.04 48.64 51.2V747.52c0 28.16-20.48 51.2-48.64 51.2H176.64c-23.04 0-43.52-17.92-46.08-40.96l-102.4-494.08c-7.68-33.28 15.36-64 46.08-64zM788.48 770.56c0 15.36 20.48 25.6 33.28 25.6s33.28-10.24 33.28-25.6v-537.6c0-15.36-17.92-25.6-33.28-25.6-15.36 0-33.28 10.24-33.28 25.6v537.6z"  horiz-adv-x="1024" />

    
    <glyph glyph-name="_new_example" unicode="&#59692;" d="M857.6 739.84H560.64L476.16 896H140.8C102.4 896 69.12 862.72 69.12 824.32v-855.04c0-53.76 43.52-97.28 97.28-97.28h691.2c53.76 0 97.28 43.52 97.28 97.28V642.56c0 53.76-43.52 97.28-97.28 97.28z m46.08-770.56c0-25.6-20.48-46.08-46.08-46.08h-691.2c-25.6 0-46.08 20.48-46.08 46.08V688.64h737.28c25.6 0 46.08-20.48 46.08-46.08v-673.28zM788.48 263.68H389.12c-15.36 0-25.6 10.24-25.6 25.6s10.24 25.6 25.6 25.6h399.36c15.36 0 25.6-10.24 25.6-25.6s-12.8-25.6-25.6-25.6zM788.48 458.24H389.12c-15.36 0-25.6 10.24-25.6 25.6s10.24 25.6 25.6 25.6h399.36c15.36 0 25.6-10.24 25.6-25.6s-12.8-25.6-25.6-25.6zM788.48 69.12H389.12c-15.36 0-25.6 10.24-25.6 25.6s10.24 25.6 25.6 25.6h399.36c15.36 0 25.6-10.24 25.6-25.6s-12.8-25.6-25.6-25.6zM222.72 483.84m-25.6 0a25.6 25.6 0 1 1 51.2 0 25.6 25.6 0 1 1-51.2 0ZM222.72 289.28m-25.6 0a25.6 25.6 0 1 1 51.2 0 25.6 25.6 0 1 1-51.2 0ZM222.72 94.72m-25.6 0a25.6 25.6 0 1 1 51.2 0 25.6 25.6 0 1 1-51.2 0Z"  horiz-adv-x="1024" />

    
    <glyph glyph-name="_tag_one" unicode="&#59693;" d="M512 896c-281.6 0-512-230.4-512-512s230.4-512 512-512 512 230.4 512 512S796.16 896 512 896z m38.4-796.16h-79.36V581.12l-76.8-58.88v87.04l76.8 58.88h79.36v-568.32z"  horiz-adv-x="1026" />

    
    <glyph glyph-name="_tag_peace" unicode="&#59694;" d="M512 896C230.4 896 0 665.6 0 384s230.4-512 512-512 512 230.4 512 512S793.6 896 512 896z m-194.56-296.96c51.2 0 89.6-40.96 89.6-89.6 0-51.2-40.96-89.6-89.6-89.6-51.2 0-89.6 40.96-89.6 89.6s40.96 89.6 89.6 89.6z m430.08-483.84h-460.8c-20.48 0-38.4 17.92-38.4 38.4s17.92 38.4 38.4 38.4h460.8c20.48 0 38.4-17.92 38.4-38.4s-17.92-38.4-38.4-38.4z m-33.28 302.08c-51.2 0-89.6 40.96-89.6 89.6 0 51.2 40.96 89.6 89.6 89.6 51.2 0 89.6-40.96 89.6-89.6 2.56-48.64-38.4-89.6-89.6-89.6z"  horiz-adv-x="1024" />

    
    <glyph glyph-name="_tag_four" unicode="&#59695;" d="M510.723192 896c-280.897756 0-510.723192-229.825436-510.723192-510.723192s229.825436-510.723192 510.723192-510.723192 510.723192 229.825436 510.723192 510.723192-229.825436 510.723192-510.723192 510.723192z m168.538653-702.244389h-43.411471v-84.269327h-79.162095v84.269327h-227.27182v76.608479L510.723192 673.835411h86.822943l-183.860349-403.471321h143.002493V433.795511h79.162095v-163.431421h43.411471v-76.608479z"  horiz-adv-x="1024" />

    
    <glyph glyph-name="_tag_people" unicode="&#59696;" d="M512 655.36m-222.72 0a222.72 222.72 0 1 1 445.44 0 222.72 222.72 0 1 1-445.44 0ZM512 394.24c-207.36 0-376.32-225.28-376.32-506.88h752.64c0 281.6-168.96 506.88-376.32 506.88z"  horiz-adv-x="1024" />

    
    <glyph glyph-name="_tag_two" unicode="&#59697;" d="M512 896C230.4 896 0 665.6 0 384s230.4-512 512-512 512 230.4 512 512S793.6 896 512 896z m145.92-670.72v-79.36H345.6v76.8l215.04 276.48c7.68 10.24 12.8 20.48 17.92 30.72 2.56 10.24 2.56 17.92 2.56 25.6 0 20.48-5.12 40.96-20.48 56.32-12.8 15.36-33.28 23.04-56.32 25.6-20.48 0-38.4-7.68-53.76-20.48-15.36-15.36-23.04-33.28-25.6-61.44h-79.36c2.56 46.08 17.92 84.48 46.08 115.2S455.68 716.8 499.2 716.8c46.08 0 84.48-15.36 115.2-46.08s46.08-69.12 46.08-115.2c0-38.4-10.24-69.12-33.28-99.84l-176.64-227.84h207.36v-2.56z"  horiz-adv-x="1024" />

    
    <glyph glyph-name="_tag_switch" unicode="&#59698;" d="M512 896C230.4 896 0 665.6 0 384s230.4-512 512-512 512 230.4 512 512S793.6 896 512 896z m-38.4-79.36c0 20.48 17.92 38.4 38.4 38.4s38.4-17.92 38.4-38.4v-325.12c0-20.48-17.92-38.4-38.4-38.4s-38.4 17.92-38.4 38.4V816.64zM512 10.24h-5.12c-99.84 2.56-194.56 40.96-263.68 115.2-69.12 71.68-107.52 166.4-107.52 268.8 2.56 156.16 102.4 294.4 248.32 348.16 20.48 7.68 40.96-2.56 48.64-23.04 7.68-20.48-2.56-40.96-23.04-48.64-115.2-43.52-194.56-153.6-197.12-276.48 0-79.36 28.16-156.16 84.48-212.48s130.56-89.6 209.92-89.6c163.84-2.56 302.08 130.56 304.64 296.96 2.56 130.56-84.48 250.88-209.92 289.28-20.48 7.68-30.72 28.16-25.6 48.64 7.68 20.48 28.16 30.72 48.64 25.6 156.16-48.64 263.68-199.68 263.68-363.52-2.56-215.04-171.52-378.88-376.32-378.88z"  horiz-adv-x="1024" />

    
    <glyph glyph-name="_tag_five" unicode="&#59699;" d="M512 896C230.4 896 0 665.6 0 384s230.4-512 512-512 512 230.4 512 512S793.6 896 512 896z m143.36-704c-5.12-20.48-12.8-35.84-25.6-51.2-10.24-15.36-25.6-28.16-46.08-40.96s-43.52-17.92-71.68-20.48c-35.84 0-71.68 10.24-102.4 33.28-30.72 23.04-51.2 61.44-58.88 112.64h79.36c7.68-43.52 35.84-66.56 79.36-66.56 17.92 0 33.28 5.12 46.08 12.8 10.24 7.68 17.92 17.92 23.04 30.72 5.12 12.8 7.68 25.6 7.68 38.4V281.6c0 33.28-5.12 58.88-15.36 79.36-5.12 10.24-12.8 17.92-25.6 23.04-10.24 5.12-23.04 7.68-40.96 7.68-15.36 0-28.16-2.56-38.4-10.24-12.8-7.68-23.04-17.92-30.72-35.84h-74.24V650.24h291.84v-79.36H435.2v-128c25.6 20.48 53.76 30.72 87.04 30.72 20.48 0 40.96-5.12 58.88-12.8 15.36-7.68 30.72-17.92 40.96-30.72 15.36-15.36 25.6-33.28 33.28-53.76 2.56-10.24 5.12-25.6 7.68-40.96 2.56-15.36 2.56-35.84 2.56-58.88-2.56-38.4-5.12-66.56-10.24-84.48z"  horiz-adv-x="1024" />

    
    <glyph glyph-name="_layertree_forbid" unicode="&#59700;" d="M512 896C230.4 896 0 665.6 0 384s230.4-512 512-512 512 230.4 512 512S793.6 896 512 896z m343.04-819.2L204.8 727.04C286.72 798.72 394.24 844.8 512 844.8c253.44 0 460.8-207.36 460.8-460.8 0-117.76-46.08-225.28-117.76-307.2zM512-76.8c-253.44 0-460.8 207.36-460.8 460.8 0 117.76 46.08 225.28 117.76 307.2L819.2 40.96c-81.92-71.68-189.44-117.76-307.2-117.76z"  horiz-adv-x="1024" />

    
    <glyph glyph-name="_nav_notice" unicode="&#59701;" d="M217.6 558.08zM801.28 552.96zM512-76.8c-43.52 0-81.92 33.28-84.48 76.8h-51.2c5.12-71.68 64-128 135.68-128s133.12 56.32 135.68 128h-51.2c-2.56-43.52-40.96-76.8-84.48-76.8zM890.88 107.52l-17.92 58.88c-10.24 30.72-7.68 51.2-7.68 51.2v240.64c0 58.88-5.12 79.36-5.12 79.36s-10.24 87.04-99.84 168.96c-48.64 43.52-104.96 66.56-153.6 76.8v23.04c0 48.64-40.96 89.6-89.6 89.6h-7.68c-48.64 0-89.6-40.96-89.6-89.6v-20.48c-48.64-10.24-104.96-33.28-153.6-76.8-89.6-79.36-99.84-168.96-99.84-168.96s-7.68-20.48-7.68-79.36v-240.64s2.56-23.04-7.68-51.2l-17.92-58.88S97.28 25.6 189.44 25.6h645.12c94.72-2.56 56.32 81.92 56.32 81.92zM471.04 806.4c0 20.48 15.36 38.4 38.4 38.4h7.68c20.48 0 38.4-17.92 38.4-38.4v-10.24H512c-10.24 0-25.6 0-40.96-2.56v12.8z m363.52-732.16H204.8 176.64c0 7.68 5.12 28.16 5.12 30.72l15.36 46.08c10.24 33.28 10.24 58.88 10.24 69.12V460.8c0 25.6 0 40.96 2.56 51.2 0 7.68 2.56 15.36 2.56 20.48 0 0 0 10.24 5.12 23.04 7.68 25.6 30.72 71.68 79.36 115.2 74.24 69.12 174.08 74.24 212.48 74.24s135.68-7.68 212.48-74.24c51.2-46.08 71.68-94.72 79.36-120.32v-2.56c0-2.56 2.56-5.12 2.56-5.12 2.56-5.12 2.56-10.24 2.56-15.36v-2.56c0-5.12 5.12-23.04 5.12-66.56v-238.08c0-10.24 0-35.84 10.24-69.12l17.92-58.88s2.56-7.68 2.56-17.92h-7.68zM179.2 94.72l2.56 10.24c0-2.56 0-7.68-2.56-10.24z"  horiz-adv-x="1024" />

    
    <glyph glyph-name="_layertree_forbidd" unicode="&#59635;" d="M768 640H256C115.2 640 0 524.8 0 384s115.2-256 256-256h512c140.8 0 256 115.2 256 256s-115.2 256-256 256zM64 384c0 108.8 83.2 192 192 192s192-83.2 192-192-83.2-192-192-192-192 83.2-192 192z m704-192H422.4C480 236.8 512 307.2 512 384s-32 147.2-89.6 192H768c108.8 0 192-83.2 192-192s-83.2-192-192-192z"  horiz-adv-x="1024" />

    
    <glyph glyph-name="_postil_font_color" unicode="&#59702;" d="M896-25.6H128c-28.16 0-51.2-23.04-51.2-51.2s23.04-51.2 51.2-51.2h768c28.16 0 51.2 23.04 51.2 51.2s-23.04 51.2-51.2 51.2zM857.6 117.76L535.04 847.36c0 2.56-2.56 5.12-5.12 5.12-2.56 2.56-5.12 2.56-7.68 5.12h-2.56c-2.56 0-5.12 0-7.68 2.56h-2.56-2.56c-2.56 0-5.12 0-7.68-2.56h-2.56c-2.56 0-5.12-2.56-7.68-5.12l-5.12-5.12L166.4 117.76c-5.12-12.8 0-28.16 12.8-33.28s28.16 0 33.28 12.8l128 289.28h340.48l128-289.28c5.12-12.8 20.48-17.92 33.28-12.8 15.36 5.12 20.48 17.92 15.36 33.28zM363.52 437.76L512 773.12l148.48-335.36H363.52z"  horiz-adv-x="1024" />

    
    <glyph glyph-name="_postil_fill" unicode="&#59705;" d="M929.28 327.68L535.04 719.36 488.96 768l-5.12 5.12L360.96 896l-17.92-17.92 112.64-112.64L25.6 335.36l-7.68-7.68 448-448 7.68-7.68L921.6 320l7.68 7.68z m-409.6 376.32l304.64-304.64H122.88L473.6 750.08l46.08-46.08zM473.6-128zM926.72 245.76s-79.36-104.96-79.36-148.48 35.84-79.36 79.36-79.36 79.36 35.84 79.36 79.36c0 43.52-79.36 148.48-79.36 148.48z"  horiz-adv-x="1024" />

    
    <glyph glyph-name="_layertree_recycle" unicode="&#59706;" d="M972.787051 755.254293l-299.404505 17.91309c-5.118026 12.795064-30.708154 76.770386-38.385193 89.56545-10.236051 20.472103-35.82618 23.031116-48.621244 23.031116 0 0-133.068669 7.677039-150.981759 7.677038-28.149141 0-40.944206-15.354077-46.062231-28.149141l-43.503219-74.211373-317.317595 15.354077c-15.354077 0-25.590129-10.236051-28.149141-23.031116s10.236051-25.590129 23.031116-28.149141l946.834758-51.180258c15.354077 0 25.590129 10.236051 28.149142 23.031116 0 15.354077-10.236051 28.149141-25.590129 28.149142zM402.127183 785.962447L435.39435 844.819743c20.472103 0 148.422746-7.677039 148.422746-7.677039h10.236052c5.118026-10.236051 15.354077-35.82618 25.590128-58.857296l-217.516093 7.677039zM939.519884 640.098714c0 2.559013 0 7.677039-2.559013 10.236051-5.118026 7.677039-12.795064 15.354077-23.031116 15.354078H105.281691c-12.795064-2.559013-23.031116-15.354077-20.472103-30.708155l130.509656-742.113729c0-12.795064 12.795064-23.031116 28.149142-20.472103h537.3927c12.795064 0 25.590129 7.677039 28.149142 20.472103l130.509656 739.554716V640.098714z m-179.130901-716.523601H258.822463L138.548858 614.508585h742.11373l-120.273605-690.933472z"  horiz-adv-x="1024" />

    
    <glyph glyph-name="_tree_edit" unicode="&#59655;" d="M233.7024 338.0736L650.0352 754.4064l166.528-166.528L400.2304 171.52zM110.08 48.64l81.92 248.32 166.4-163.84zM898.56 670.72c23.04 23.04 23.04 61.44 0 84.48l-84.48 84.48c-23.04 23.04-61.44 23.04-84.48 0l-40.96-40.96 163.84-163.84 46.08 35.84zM998.4-128H25.6c-12.8 0-25.6 12.8-25.6 25.6s10.24 25.6 25.6 25.6h972.8c12.8 0 25.6-12.8 25.6-25.6s-12.8-25.6-25.6-25.6z"  horiz-adv-x="1024" />

    
    <glyph glyph-name="_align_averagev" unicode="&#59704;" d="M998.4-64H25.6c-12.8 0-25.6-12.8-25.6-32s12.8-32 25.6-32h972.8c12.8 0 25.6 12.8 25.6 32s-12.8 32-25.6 32zM25.6 832h972.8c12.8 0 25.6 12.8 25.6 32s-12.8 32-25.6 32H25.6C12.8 896 0 883.2 0 864s12.8-32 25.6-32zM192 512h640v-256H192z"  horiz-adv-x="1024" />

    
    <glyph glyph-name="_align_bottom" unicode="&#59707;" d="M998.4-64H25.6c-12.8 0-25.6-12.8-25.6-32s12.8-32 25.6-32h972.8c12.8 0 25.6 12.8 25.6 32s-12.8 32-25.6 32zM128 640h256v-576H128zM640 896h256v-832h-256z"  horiz-adv-x="1024" />

    
    <glyph glyph-name="_align_averageh" unicode="&#59708;" d="M32 896C12.8 896 0 883.2 0 870.4v-972.8c0-12.8 12.8-25.6 32-25.6s32 12.8 32 25.6V870.4C64 883.2 51.2 896 32 896zM992 896c-19.2 0-32-12.8-32-25.6v-972.8c0-12.8 12.8-25.6 32-25.6s32 12.8 32 25.6V870.4c0 12.8-12.8 25.6-32 25.6zM384 704h256v-640H384z"  horiz-adv-x="1024" />

    
    <glyph glyph-name="_align_hcenter" unicode="&#59709;" d="M998.4 448H896V704h-256v-256H384V832H128v-384H25.6c-12.8 0-25.6-12.8-25.6-32s12.8-32 25.6-32H128v-384h256V384h256v-256h256V384h102.4c12.8 0 25.6 12.8 25.6 32s-12.8 32-25.6 32z"  horiz-adv-x="1024" />

    
    <glyph glyph-name="_align_top" unicode="&#59710;" d="M998.4 896H25.6C12.8 896 0 883.2 0 864s12.8-32 25.6-32h972.8c12.8 0 25.6 12.8 25.6 32s-12.8 32-25.6 32zM128 704h256v-576H128zM640 704h256v-832h-256z"  horiz-adv-x="1024" />

    
    <glyph glyph-name="_align_left" unicode="&#59711;" d="M32 896C12.8 896 0 883.2 0 870.4v-972.8c0-12.8 12.8-25.6 32-25.6s32 12.8 32 25.6V870.4C64 883.2 51.2 896 32 896zM192 768h576v-256H192zM192 256h832v-256H192z"  horiz-adv-x="1024" />

    
    <glyph glyph-name="_align_vcenter" unicode="&#59712;" d="M896 256H512V512h256V768H512V870.4c0 12.8-12.8 25.6-32 25.6S448 883.2 448 870.4V768H192v-256h256v-256H64v-256h384v-102.4c0-12.8 12.8-25.6 32-25.6s32 12.8 32 25.6V0h384v256z"  horiz-adv-x="1024" />

    
    <glyph glyph-name="_align_right" unicode="&#59713;" d="M992 896c-19.2 0-32-12.8-32-25.6v-972.8c0-12.8 12.8-25.6 32-25.6s32 12.8 32 25.6V870.4c0 12.8-12.8 25.6-32 25.6zM256 768h576v-256H256zM0 256h832v-256H0z"  horiz-adv-x="1024" />

    
    <glyph glyph-name="_postil_bordercolo" unicode="&#59714;" d="M233.1648 261.2992L649.5232 677.6576l166.528-166.5536-416.3328-416.3328zM110.08-28.16l81.92 248.32 166.4-163.84zM898.56 593.92c23.04 23.04 23.04 61.44 0 84.48l-84.48 84.48c-23.04 23.04-61.44 23.04-84.48 0l-40.96-40.96 163.84-163.84 46.08 35.84z"  horiz-adv-x="1024" />

    
    <glyph glyph-name="_download" unicode="&#59715;" d="M865.28 422.4h-235.52V896h-235.52v-473.6H158.72L512 107.52l353.28 314.88zM158.72-128h709.12v79.36H158.72V-128z"  horiz-adv-x="1024" />

    
    <glyph glyph-name="_demo_down" unicode="&#59716;" d="M517.12-128h17.92l2.56 2.56c2.56 0 2.56 2.56 5.12 2.56l2.56 2.56 286.72 317.44c10.24 10.24 7.68 25.6-2.56 35.84-10.24 10.24-25.6 7.68-35.84-2.56l-243.2-271.36V867.84c0 15.36-10.24 25.6-25.6 25.6s-25.6-10.24-25.6-25.6v-913.92L225.28 199.68c-10.24 10.24-25.6 7.68-35.84-2.56s-7.68-25.6 2.56-35.84l314.88-284.16 2.56-2.56c5.12 0 5.12 0 7.68-2.56z"  horiz-adv-x="1024" />

    
    <glyph glyph-name="_demo_up" unicode="&#59717;" d="M529.92 893.44H512l-2.56-2.56c-2.56 0-2.56-2.56-5.12-2.56l-2.56-2.56L215.04 568.32c-10.24-10.24-7.68-25.6 2.56-35.84 10.24-10.24 25.6-7.68 35.84 2.56l243.2 271.36V-102.4c0-15.36 10.24-25.6 25.6-25.6s25.6 10.24 25.6 25.6V811.52l273.92-245.76c10.24-10.24 25.6-7.68 35.84 2.56s7.68 25.6-2.56 35.84L540.16 888.32 537.6 890.88c-5.12 0-5.12 0-7.68 2.56z"  horiz-adv-x="1024" />

    
    <glyph glyph-name="_interaction_none" unicode="&#59731;" d="M512 896C230.4 896 0 665.6 0 384s230.4-512 512-512 512 230.4 512 512-230.4 512-512 512z m448-512c0-115.2-44.8-211.2-108.8-294.4L217.6 723.2C300.8 793.6 403.2 832 512 832c249.6 0 448-198.4 448-448zM64 384c0 115.2 44.8 211.2 108.8 294.4l633.6-633.6C729.6-19.2 627.2-64 512-64c-249.6 0-448 198.4-448 448z"  horiz-adv-x="1024" />

    
    <glyph glyph-name="_interaction_fadei" unicode="&#59732;" d="M0 896h768v-768H0zM832 640v-576H256v-192h768V640z"  horiz-adv-x="1024" />

    
    <glyph glyph-name="_interaction_slide" unicode="&#59733;" d="M889.6 313.6c-12.8 12.8-32 12.8-44.8 0L512-19.2V864c0 19.2-12.8 32-32 32S448 883.2 448 864v-883.2L121.6 313.6c-12.8 6.4-38.4 6.4-51.2 0s-6.4-38.4 0-51.2l384-384c6.4-6.4 19.2-6.4 25.6-6.4s19.2 0 25.6 6.4l384 384c6.4 12.8 6.4 38.4 0 51.2z"  horiz-adv-x="1024" />

    
    <glyph glyph-name="_interaction_slide1" unicode="&#59734;" d="M992 384H108.8l326.4 326.4c12.8 12.8 12.8 38.4 6.4 51.2-6.4 12.8-38.4 6.4-51.2 0l-384-384c-6.4-6.4-6.4-19.2-6.4-25.6s0-19.2 6.4-25.6l384-384c12.8-12.8 32-12.8 44.8 0s12.8 32 0 44.8L108.8 320h883.2c19.2 0 32 12.8 32 32s-12.8 32-32 32z"  horiz-adv-x="1024" />

    
    <glyph glyph-name="_interaction_slide2" unicode="&#59735;" d="M1017.6 377.6l-384 384c-12.8 6.4-38.4 6.4-51.2 0-12.8-6.4-6.4-38.4 0-51.2L915.2 384H32c-19.2 0-32-12.8-32-32s12.8-32 32-32h883.2l-326.4-326.4c-12.8-12.8-12.8-32 0-44.8s32-12.8 44.8 0l384 384c6.4 0 6.4 12.8 6.4 19.2s0 19.2-6.4 25.6z"  horiz-adv-x="1024" />

    
    <glyph glyph-name="_interaction_slide3" unicode="&#59736;" d="M953.6 505.6l-384 384C563.2 896 550.4 896 544 896s-19.2 0-25.6-6.4l-384-384c-6.4-12.8-6.4-38.4 0-51.2 6.4-12.8 32-12.8 44.8 0L512 787.2v-883.2c0-19.2 12.8-32 32-32s32 12.8 32 32V787.2l326.4-326.4c12.8-12.8 32-12.8 44.8 0s12.8 32 6.4 44.8z"  horiz-adv-x="1024" />

    
    <glyph glyph-name="_interaction_swipe" unicode="&#59737;" d="M32 832c-19.2 0-32-12.8-32-32v-896c0-19.2 12.8-32 32-32s32 12.8 32 32v896C64 819.2 51.2 832 32 832zM992 384H300.8l326.4 326.4c12.8 12.8 12.8 32 0 44.8s-32 12.8-44.8 6.4l-384-384c-6.4-6.4-6.4-19.2-6.4-25.6s0-19.2 6.4-25.6l384-384c12.8-12.8 32-12.8 44.8 0s12.8 32 0 44.8L300.8 320h691.2c19.2 0 32 12.8 32 32s-12.8 32-32 32z"  horiz-adv-x="1024" />

    
    <glyph glyph-name="_interaction_swipe1" unicode="&#59738;" d="M992 832c-19.2 0-32-12.8-32-32v-896c0-19.2 12.8-32 32-32s32 12.8 32 32v896c0 19.2-12.8 32-32 32zM825.6 377.6l-384 384c-12.8 6.4-38.4 6.4-51.2 0-12.8-6.4-6.4-38.4 0-51.2L723.2 384H32c-19.2 0-32-12.8-32-32s12.8-32 32-32h691.2l-326.4-326.4c-12.8-12.8-12.8-32 0-44.8s32-12.8 44.8 0l384 384s6.4 19.2 6.4 32c0 6.4-6.4 12.8-6.4 12.8z"  horiz-adv-x="1024" />

    
    <glyph glyph-name="_interaction_swipe2" unicode="&#59739;" d="M992-64h-896c-19.2 0-32-12.8-32-32s12.8-32 32-32h896c19.2 0 32 12.8 32 32s-12.8 32-32 32zM518.4 70.4c6.4-6.4 19.2-6.4 25.6-6.4s19.2 0 25.6 6.4l384 384c12.8 12.8 12.8 32 0 44.8s-32 12.8-44.8 0L576 172.8V864c0 19.2-12.8 32-32 32S512 883.2 512 864v-691.2L185.6 505.6c-12.8 6.4-38.4 6.4-51.2 0-12.8-6.4-6.4-38.4 0-51.2l384-384z"  horiz-adv-x="1024" />

    
    <glyph glyph-name="_interaction_swipe3" unicode="&#59740;" d="M992 896h-896c-19.2 0-32-12.8-32-32s12.8-32 32-32h896c19.2 0 32 12.8 32 32s-12.8 32-32 32zM569.6 697.6C563.2 704 550.4 704 544 704s-19.2 0-25.6-6.4l-384-384c-6.4-12.8-6.4-38.4 0-51.2 6.4-12.8 32-12.8 44.8 0L512 595.2v-691.2c0-19.2 12.8-32 32-32s32 12.8 32 32V595.2l326.4-326.4c12.8-12.8 32-12.8 44.8 0s12.8 32 0 44.8l-377.6 384z"  horiz-adv-x="1024" />

    
    <glyph glyph-name="_interaction_gestu1" unicode="&#59744;" d="M853.333333 469.333333L512 896 170.666667 469.333333h213.333333v-597.333333h256V469.333333h213.333333z"  horiz-adv-x="1024" />

    
    <glyph glyph-name="_interaction_gestu2" unicode="&#59745;" d="M170.666667 298.666667l341.333333-426.666667 341.333333 426.666667h-213.333333V896H384v-597.333333H170.666667z"  horiz-adv-x="1024" />

    
    <glyph glyph-name="_interaction_gestu3" unicode="&#59746;" d="M597.333333 42.666667l426.666667 341.333333-426.666667 341.333333v-213.333333H0v-256h597.333333v-213.333333z"  horiz-adv-x="1024" />

    
    <glyph glyph-name="_interaction_gestu4" unicode="&#59747;" d="M426.666667 725.333333L0 384l426.666667-341.333333v213.333333h597.333333V512H426.666667V725.333333z"  horiz-adv-x="1024" />

    
    <glyph glyph-name="_interaction_gestu5" unicode="&#59749;" d="M694.705394 641.062241c-46.738589 46.738589-127.46888 29.742739-140.215767 0-84.979253 63.73444-165.709544 0-165.709544 0S325.045643 811.020747 320.79668 819.518672C316.547718 832.26556 282.556017 917.244813 189.078838 887.502075c-93.477178-42.489627-55.236515-152.962656-55.236514-152.962656l152.962655-424.896265s-97.726141 25.493776-140.215767-46.73859c-55.236515-97.726141 25.493776-157.211618 25.493776-157.211618s216.697095-157.211618 280.431535-203.950207 118.970954-25.493776 131.717842-21.244814c0 0 310.174274 114.721992 318.672199 118.970955 21.244813 8.497925 72.232365 33.991701 93.477179 123.219917 21.244813 101.975104-8.497925 199.701245-8.497926 199.701244L885.908714 598.572614c-33.991701 84.979253-169.958506 76.481328-191.20332 42.489627z m-186.954357-662.838175c-67.983402 50.987552-280.431535 203.950207-280.431535 203.950208-12.746888 8.497925-12.746888 21.244813-4.248963 33.991701 8.497925 12.746888 21.244813 12.746888 25.493776 8.497925l186.954357-84.979253L367.53527 343.634855 214.572614 764.282158c-8.497925 21.244813-4.248963 33.991701 8.497925 38.240664 12.746888 4.248963 21.244813 0 25.493776-12.746888l127.46888-348.414938 21.244813-55.236515 84.979253 29.742739s-29.742739 84.979253-42.489626 118.970954c-8.497925 29.742739 55.236515 46.738589 67.983402 21.244814l59.485478-165.709544 84.979253 29.742739L601.228216 556.082988c-4.248963 16.995851 55.236515 29.742739 72.232365 0 12.746888-33.991701 55.236515-152.962656 55.236514-152.962656l42.489627 12.746888L724.448133 551.834025c-12.746888 33.991701 59.485477 25.493776 67.983402 4.248963l106.224067-284.680498c-4.248963 8.497925 25.493776-67.983402 4.248962-144.464731-8.497925-38.240664-46.738589-59.485477-46.738589-59.485477l-310.174274-110.473029c-4.248963 4.248963-21.244813 8.497925-38.240664 21.244813z"  horiz-adv-x="1024" />

    
    <glyph glyph-name="_interaction_gestu6" unicode="&#59750;" d="M512 384m-213.333333 0a213.333333 213.333333 0 1 1 426.666666 0 213.333333 213.333333 0 1 1-426.666666 0ZM512 896c-51.2 0-85.333333-8.533333-85.333333-8.533333l8.533333-42.666667c25.6 4.266667 51.2 8.533333 76.8 8.533333V896M345.6 866.133333c-42.666667-8.533333-76.8-34.133333-76.8-34.133333l21.333333-38.4c21.333333 12.8 46.933333 21.333333 72.533334 29.866667l-17.066667 42.666666z m-213.333333-136.533333l29.866666-29.866667c17.066667 21.333333 38.4 38.4 55.466667 51.2l-21.333333 34.133334c-34.133333-17.066667-64-55.466667-64-55.466667zM42.666667 584.533333l38.4-17.066666c8.533333 25.6 21.333333 46.933333 38.4 68.266666l-38.4 25.6c-21.333333-25.6-38.4-76.8-38.4-76.8z m-42.666667-162.133333l42.666667-4.266667c0 25.6 4.266667 51.2 12.8 76.8l-42.666667 8.533334S0 469.333333 0 422.4z m17.066667-170.666667l42.666666 12.8c-8.533333 25.6-12.8 51.2-12.8 76.8l-42.666666-4.266666s4.266667-46.933333 12.8-85.333334z m72.533333-153.6l34.133333 25.6c-12.8 21.333333-25.6 42.666667-38.4 68.266667l-38.4-21.333333s17.066667-42.666667 42.666667-72.533334z m115.2-123.733333l25.6 34.133333c-21.333333 17.066667-38.4 34.133333-59.733333 51.2l-29.866667-29.866666s29.866667-34.133333 64-55.466667z m153.6-76.8l12.8 42.666667c-25.6 8.533333-46.933333 17.066667-72.533333 29.866666l-21.333334-38.4c0-4.266667 34.133333-25.6 81.066667-34.133333z m166.4-25.6v42.666667H512c-21.333333 0-42.666667 0-68.266667 4.266666l-4.266666-42.666666s38.4-4.266667 85.333333-4.266667z m153.6 72.533333c-25.6-8.533333-51.2-17.066667-76.8-21.333333l8.533333-42.666667c29.866667 4.266667 55.466667 12.8 81.066667 21.333334l-12.8 42.666666z m162.133333 46.933334l-29.866666 29.866666c-21.333333-17.066667-42.666667-29.866667-64-42.666666l21.333333-38.4c29.866667 17.066667 72.533333 51.2 72.533333 51.2z m110.933334 128l-38.4 21.333333c-12.8-21.333333-29.866667-42.666667-46.933334-64l34.133334-29.866667c21.333333 25.6 51.2 72.533333 51.2 72.533334m59.733333 157.866666l-42.666667 8.533334c-4.266667-25.6-12.8-51.2-21.333333-76.8l38.4-17.066667c21.333333 42.666667 25.6 85.333333 25.6 85.333333z m8.533333 166.4l-42.666666-4.266666c4.266667-17.066667 4.266667-38.4 4.266666-55.466667v-21.333333h42.666667c0 38.4-4.266667 81.066667-4.266667 81.066666z m-46.933333 166.4l-38.4-17.066666c12.8-21.333333 21.333333-46.933333 29.866667-72.533334l42.666666 12.8c-17.066667 42.666667-34.133333 76.8-34.133333 76.8z m-98.133333 136.533334l-29.866667-29.866667c17.066667-17.066667 34.133333-38.4 51.2-59.733333l34.133333 25.6c-25.6 38.4-55.466667 64-55.466666 64z m-140.8 98.133333l-17.066667-38.4c21.333333-12.8 46.933333-25.6 68.266667-38.4l25.6 34.133333c-29.866667 25.6-76.8 42.666667-76.8 42.666667zM571.733333 891.733333l-4.266666-42.666666c25.6-4.266667 51.2-8.533333 76.8-17.066667l12.8 42.666667c-38.4 12.8-81.066667 17.066667-85.333334 17.066666z"  horiz-adv-x="1024" />

    
    <glyph glyph-name="_interaction_gestu" unicode="&#59752;" d="M750.933333 533.333333c-81.066667 110.933333-162.133333 55.466667-174.933333 25.6C469.333333 669.866667 396.8 554.666667 396.8 554.666667s-59.733333 166.4-85.333333 226.133333C294.4 819.2 256 917.333333 170.666667 891.733333c-81.066667-34.133333-38.4-145.066667-38.4-145.066666L341.333333 213.333333s-119.466667 93.866667-183.466666 29.866667c-72.533333-81.066667 12.8-140.8 12.8-140.8s213.333333-153.6 277.333333-200.533333 119.466667-25.6 132.266667-21.333334c0 0 307.2 115.2 315.733333 119.466667 21.333333 8.533333 51.2 21.333333 68.266667 98.133333 17.066667 85.333333-12.8 174.933333-12.8 174.933334L896 469.333333c-34.133333 85.333333-123.733333 98.133333-145.066667 64z"  horiz-adv-x="1024" />

    
    <glyph glyph-name="_interaction_gestu7" unicode="&#59753;" d="M512 810.666667c234.666667 0 426.666667-192 426.666667-426.666667s-192-426.666667-426.666667-426.666667S85.333333 149.333333 85.333333 384 277.333333 810.666667 512 810.666667m0 85.333333C230.4 896 0 665.6 0 384s230.4-512 512-512 512 230.4 512 512S793.6 896 512 896z"  horiz-adv-x="1024" />

    
    <glyph glyph-name="_choice" unicode="&#59755;" d="M1016.32 734.72c-10.24 10.24-25.6 10.24-35.84 0L332.8 87.04 43.52 376.32c-10.24 10.24-25.6 10.24-35.84 0s-10.24-25.6 0-35.84l307.2-307.2c10.24-10.24 25.6-10.24 35.84 0l665.6 665.6c10.24 10.24 10.24 25.6 0 35.84z"  horiz-adv-x="1024" />

    
    <glyph glyph-name="_interaction_gestu8" unicode="&#59757;" d="M512 896C230.4 896 0 665.6 0 384s230.4-512 512-512 512 230.4 512 512S793.6 896 512 896z m0-981.333333C251.733333-85.333333 42.666667 123.733333 42.666667 384S251.733333 853.333333 512 853.333333s469.333333-209.066667 469.333333-469.333333-209.066667-469.333333-469.333333-469.333333zM512 384m-213.333333 0a213.333333 213.333333 0 1 1 426.666666 0 213.333333 213.333333 0 1 1-426.666666 0Z"  horiz-adv-x="1024" />

    
    <glyph glyph-name="_board_play" unicode="&#59758;" d="M512 896C229.668571 896 0 666.331429 0 384s229.668571-512 512-512 512 229.668571 512 512S794.331429 896 512 896z m140.434286-542.72l-194.56-122.88c-26.331429-17.554286-48.274286-2.925714-48.274286 30.72V506.88c0 33.645714 21.942857 48.274286 48.274286 30.72l194.56-122.88c27.794286-16.091429 27.794286-45.348571 0-61.44z"  horiz-adv-x="1024" />

    
    <glyph glyph-name="_board_pause" unicode="&#59759;" d="M512 896C229.668571 896 0 666.331429 0 384s229.668571-512 512-512 512 229.668571 512 512S794.331429 896 512 896z m-43.885714-629.028571c0-24.868571-19.017143-43.885714-43.885715-43.885715s-43.885714 19.017143-43.885714 43.885715V501.028571c0 24.868571 19.017143 43.885714 43.885714 43.885715s43.885714-19.017143 43.885715-43.885715v-234.057142z m175.542857 0c0-24.868571-19.017143-43.885714-43.885714-43.885715s-43.885714 19.017143-43.885715 43.885715V501.028571c0 24.868571 19.017143 43.885714 43.885715 43.885715s43.885714-19.017143 43.885714-43.885715v-234.057142z"  horiz-adv-x="1024" />

    
    <glyph glyph-name="_reset" unicode="&#59764;" d="M867.84 732.16L931.84 844.8H632.32l151.04-261.12 58.88 102.4C921.6 604.16 972.8 494.08 972.8 371.2 972.8 125.44 770.56-76.8 524.8-76.8S76.8 125.44 76.8 371.2c0 212.48 145.92 389.12 343.04 435.2l-17.92 48.64C186.88 801.28 25.6 604.16 25.6 371.2 25.6 94.72 248.32-128 524.8-128S1024 94.72 1024 371.2c0 143.36-58.88 271.36-156.16 360.96z"  horiz-adv-x="1024" />

    
    <glyph glyph-name="_center" unicode="&#59771;" d="M721.066667 597.333333H298.666667c-21.333333 0-42.666667-29.866667-42.666667-46.933333v-341.333333c0-25.6 21.333333-38.4 42.666667-38.4h426.666666c25.6 0 42.666667 12.8 42.666667 34.133333V550.4c0 17.066667-21.333333 46.933333-46.933333 46.933333z m4.266666-375.466666c0-8.533333-8.533333-8.533333-21.333333-8.533334h-384c-8.533333 0-21.333333 8.533333-21.333333 12.8V533.333333c0 8.533333 8.533333 21.333333 21.333333 21.333334h384c8.533333 0 21.333333-12.8 21.333333-21.333334v-311.466666zM499.2 349.866667c4.266667-4.266667 12.8-4.266667 17.066667 0 4.266667 4.266667 4.266667 12.8 0 17.066666l-29.866667 21.333334c-8.533333 8.533333-17.066667 8.533333-25.6 0l-102.4-72.533334c-4.266667-4.266667-4.266667-12.8 0-17.066666 0-4.266667 4.266667-4.266667 8.533333-4.266667h8.533334l98.133333 72.533333 25.6-17.066666zM614.4 379.733333c-8.533333 8.533333-17.066667 8.533333-29.866667 0l-145.066666-102.4c-4.266667-4.266667-4.266667-12.8 0-17.066666 0-4.266667 4.266667-4.266667 8.533333-4.266667h4.266667l140.8 102.4 59.733333-64c4.266667-4.266667 12.8-4.266667 17.066667 0 4.266667 4.266667 4.266667 12.8 0 17.066667l-55.466667 68.266666zM401.066667 409.6c29.866667 0 55.466667 25.6 55.466666 55.466667s-25.6 55.466667-55.466666 55.466666-55.466667-25.6-55.466667-55.466666c0-29.866667 21.333333-55.466667 55.466667-55.466667z m0 85.333333c17.066667 0 29.866667-12.8 29.866666-29.866666s-12.8-29.866667-29.866666-29.866667-29.866667 12.8-29.866667 29.866667c-4.266667 17.066667 8.533333 29.866667 29.866667 29.866666zM1006.933333 341.333333h-136.533333c-8.533333 0-17.066667 12.8-17.066667 21.333334 0 12.8 8.533333 21.333333 17.066667 21.333333h136.533333c8.533333 0 17.066667-12.8 17.066667-21.333333 0-12.8-8.533333-21.333333-17.066667-21.333334zM153.6 341.333333H17.066667c-8.533333 0-17.066667 8.533333-17.066667 21.333334 0 8.533333 8.533333 21.333333 17.066667 21.333333h136.533333c8.533333 0 17.066667-12.8 17.066667-21.333333 0-12.8-8.533333-21.333333-17.066667-21.333334zM512 699.733333V878.933333c0 8.533333 12.8 17.066667 21.333333 17.066667 12.8 0 21.333333-8.533333 21.333334-17.066667v-179.2c0-8.533333-8.533333-17.066667-21.333334-17.066666-8.533333 0-21.333333 8.533333-21.333333 17.066666zM512-110.933333v179.2c0 8.533333 12.8 17.066667 21.333333 17.066666 12.8 0 21.333333-8.533333 21.333334-17.066666v-179.2c0-8.533333-12.8-17.066667-21.333334-17.066667s-21.333333 8.533333-21.333333 17.066667z"  horiz-adv-x="1024" />

    
    <glyph glyph-name="_top_left" unicode="&#59777;" d="M870.4 725.333333c-8.533333 0-25.6 0-34.133333-8.533333L512 392.533333V384c0-8.533333 0-8.533333 8.533333-17.066667l307.2-315.733333c8.533333-8.533333 25.6-8.533333 34.133334 0 8.533333 8.533333 8.533333 25.6 0 34.133333L563.2 384l307.2 307.2c8.533333 8.533333 8.533333 25.6 0 34.133333zM221.866667 384l307.2 307.2c8.533333 8.533333 8.533333 25.6 0 34.133333-8.533333 0-25.6 0-34.133334-8.533333L170.666667 392.533333V384c0-8.533333 0-8.533333 8.533333-17.066667l307.2-315.733333c8.533333-8.533333 25.6-8.533333 34.133333 0 8.533333 8.533333 8.533333 25.6 0 34.133333L221.866667 384z"  horiz-adv-x="1024" />

    
    <glyph glyph-name="_top_right" unicode="&#59778;" d="M503.466667 401.066667L196.266667 716.8c-8.533333 8.533333-25.6 8.533333-34.133334 0-8.533333-8.533333-8.533333-25.6 0-34.133333L460.8 384 153.6 76.8c-8.533333-8.533333-8.533333-25.6 0-34.133333 8.533333 0 25.6 0 34.133333 8.533333L512 384c0 8.533333 0 8.533333-8.533333 17.066667zM844.8 401.066667L529.066667 716.8c-8.533333 8.533333-25.6 8.533333-34.133334 0-8.533333-8.533333-8.533333-25.6 0-34.133333L802.133333 384 494.933333 76.8c-8.533333-8.533333-8.533333-25.6 0-34.133333 8.533333 0 25.6 0 34.133334 8.533333L853.333333 384c0 8.533333 0 8.533333-8.533333 17.066667z"  horiz-adv-x="1024" />

    
    <glyph glyph-name="_scale" unicode="&#59784;" d="M857.6 768h-174.08v-38.4h145.92l-145.92-145.92 28.16-28.16 145.92 145.92v-145.92H896V768zM896 38.4v174.08h-38.4v-145.92l-145.92 145.92-28.16-28.16 145.92-145.92h-145.92V0H896zM128 729.6v-174.08h38.4V701.44l145.92-145.92 28.16 28.16-145.92 145.92h145.92V768H128zM166.4 0h174.08v38.4H194.56l145.92 145.92-28.16 28.16-145.92-145.92v145.92H128V0z"  horiz-adv-x="1024" />

    
    <glyph glyph-name="_icon_fixedpoint" unicode="&#58939;" d="M512 384m-32 0a32 32 0 1 1 64 0 32 32 0 1 1-64 0ZM992 416H896A384 384 0 0 1 544 768V864a32 32 0 0 1-64 0V768A384 384 0 0 1 128 416H32a32 32 0 0 1 0-64H128A384 384 0 0 1 480 0v-96a32 32 0 0 1 64 0V0A384 384 0 0 1 896 352h96a32 32 0 0 1 0 64z m-448-352v96a32 32 0 0 1-64 0V64a320 320 0 0 0-284.8 288H288a32 32 0 0 1 0 64H195.2A320 320 0 0 0 480 700.8V608a32 32 0 0 1 64 0V700.8A320 320 0 0 0 832 416h-96a32 32 0 0 1 0-64H832A320 320 0 0 0 544 64z"  horiz-adv-x="1024" />

    
    <glyph glyph-name="_icon_show" unicode="&#58941;" d="M512 768C229.12 768 0 384 0 384s229.12-384 512-384 512 384 512 384-229.12 384-512 384z m0-720C264.32 48 64 384 64 384s200.32 336 448 336S960 384 960 384s-200.32-336-448-336zM512 544A160 160 0 1 1 672 384 160 160 0 0 1 512 544z m0-256A96 96 0 1 0 608 384 96 96 0 0 0 512 288z"  horiz-adv-x="1024" />

    
    <glyph glyph-name="_icon_conceal" unicode="&#58942;" d="M60.122718-22.856487m22.627417 22.627417l814.134464 814.134464q22.627417 22.627417 45.254834 0l0 0q22.627417-22.627417 0-45.254834l-814.134464-814.134464q-22.627417-22.627417-45.254834 0l0 0q-22.627417 22.627417 0 45.254834ZM607.36 389.12V384A96 96 0 0 0 512 288h-5.12l-53.12-53.12a158.72 158.72 0 0 1 206.72 206.72zM416.64 378.88L416 384A96 96 0 0 0 512 480h5.12l53.12 53.12a158.72 158.72 0 0 1-206.72-207.36zM192 152.96l34.56 33.92A1057.28 1057.28 0 0 0 64 384s200.32 336 448 336a352.64 352.64 0 0 0 185.6-59.52l34.56 33.92A406.4 406.4 0 0 1 512 768C229.12 768 0 384 0 384a1177.6 1177.6 0 0 1 192-231.04zM832 615.04l-34.56-33.92A1057.28 1057.28 0 0 0 960 384s-200.32-336-448-336a352.64 352.64 0 0 0-185.6 59.52l-34.56-33.92A406.4 406.4 0 0 1 512 0c282.88 0 512 384 512 384a1177.6 1177.6 0 0 1-192 231.04z"  horiz-adv-x="1024" />

    
    <glyph glyph-name="_icon_italic" unicode="&#58948;" d="M554.88 28.8h-320l6.4 24.32c74.88 3.2 116.48 26.88 128 72.32L547.84 794.88c14.08 51.2-14.72 76.8-85.12 76.8l6.4 24.32h320l-6.4-24.32c-76.16 0-120.32-22.4-131.84-76.8L469.76 128c-12.16-45.44 18.56-69.12 91.52-72.32z"  horiz-adv-x="1024" />

    
    <glyph glyph-name="_icon_lineThrough" unicode="&#58949;" d="M64.00504 485.113102h895.98992v-63.99928H64.00504zM473.600432 529.912598C360.961699 568.312166 308.48229 626.551511 320.00216 703.99064A162.558171 162.558171 0 0 0 480.640353 862.068862c112.638733 6.399928 199.037761-59.51933 260.477069-197.117783l26.879698 9.599892-22.399748 206.717675-67.199244-28.799676A456.314866 456.314866 0 0 1 480.640353 895.98848Q230.403168 886.388588 215.683334 679.030921a191.99784 191.99784 0 0 1 60.159323-149.118323zM575.99928 376.314326c85.759035-44.799496 127.99856-100.47887 127.99856-168.958099a169.598092 169.598092 0 0 0-177.917998-178.557991q-191.99784-19.199784-279.676854 202.237725l-28.799676-4.47995 14.079842-216.957559 77.439128 24.319726a670.712454 670.712454 0 0 1 224.637473-33.919618q264.957019 9.599892 274.556911 231.037401a224.637473 224.637473 0 0 1-46.719474 145.278365z"  horiz-adv-x="1024" />

    
    <glyph glyph-name="_icon_underline" unicode="&#58950;" d="M832 789.76v-452.48q-5.12-312.96-327.68-320Q199.04 19.200000000000045 199.04 320V794.88c0 51.2-33.92 76.8-101.12 76.8V896h298.24v-24.32q-101.12 0-96-76.8v-467.2q-5.12-256 236.16-260.48 245.76 9.6 256 270.08V789.76c0 58.24-37.12 85.12-111.36 81.92V896h245.76v-24.32C862.08 874.88 832 848 832 789.76zM97.92-64h828.8v-64H97.92z"  horiz-adv-x="1024" />

    
    <glyph glyph-name="_icon_bold" unicode="&#58951;" d="M576 28.8H155.52v24.32c80 3.2 115.84 30.08 106.24 81.92V789.76C261.76 844.8 225.92 871.68 155.52 871.68V896h400Q832 896 832 693.76q0-154.24-178.56-197.76 212.48-52.48 216.96-225.92-6.4-236.16-294.4-241.28z m-25.6 443.52h-192v-337.28c0-44.8 24.32-67.84 81.92-67.84h119.68a179.84 179.84 0 0 1 197.76 202.88A192 192 0 0 1 550.4 472.32z m0 389.76H439.68C384 855.68 357.76 832 357.76 785.28V512h192c109.44 6.4 165.76 69.12 168.96 187.52S663.04 862.08 550.4 862.08z"  horiz-adv-x="1024" />

    
    <glyph glyph-name="_icon_zoomin" unicode="&#58911;" d="M804.266667 676.266667a21.333333 21.333333 0 0 1-30.293334 0L597.333333 499.626667V618.666667a21.333333 21.333333 0 0 1-42.666666 0v-170.666667a21.333333 21.333333 0 0 1 21.333333-21.333333h170.666667a21.333333 21.333333 0 0 1 0 42.666666h-119.04l177.066666 177.066667a21.333333 21.333333 0 0 1-0.426666 29.866667zM448 341.33333300000004h-170.666667a21.333333 21.333333 0 0 1 0-42.666666h119.04l-176.64-177.066667a21.333333 21.333333 0 1 1 30.293334-30.293333L426.666667 268.373333v-119.04a21.333333 21.333333 0 0 1 42.666666 0v170.666667a21.333333 21.333333 0 0 1-21.333333 21.333333z"  horiz-adv-x="1024" />

    
    <glyph glyph-name="_icon_zoomout" unicode="&#58912;" d="M789.333333 682.666667h-170.666666a21.333333 21.333333 0 0 1 0-42.666667h119.04l-177.066667-177.066667a21.333333 21.333333 0 1 1 30.293333-30.293333L768 609.7066669999999V490.666667a21.333333 21.333333 0 0 1 42.666667 0v170.666666a21.333333 21.333333 0 0 1-21.333334 21.333334zM433.066667 334.93333299999995L256 158.29333299999996V277.33333300000004a21.333333 21.333333 0 0 1-42.666667 0v-170.666666a21.333333 21.333333 0 0 1 21.333334-21.333334h170.666666a21.333333 21.333333 0 0 1 0 42.666667H286.293333l177.066667 177.066667a21.333333 21.333333 0 0 1-30.293333 30.293333z"  horiz-adv-x="1024" />

    
    <glyph glyph-name="_icon_right" unicode="&#58913;" d="M768 354.55999999999995a20.907 20.907 0 0 1-5.12 23.467L610.987 526.933a21.333 21.333 0 0 1-30.294 0 20.907 20.907 0 0 1 0-29.866L695.04 384H277.333a21.333 21.333 0 0 1 0-42.667H695.04L580.693 228.26700000000005a20.907 20.907 0 0 1 0-29.867 21.333 21.333 0 0 1 30.294 0L761.6 347.307a21.333 21.333 0 0 1 6.4 7.253z"  horiz-adv-x="1024" />

    
    <glyph glyph-name="_icon_down" unicode="&#58914;" d="M697.6 315.307a20.907 20.907 0 0 1-29.867 0L554.667 200.96000000000004V618.6669999999999a21.333 21.333 0 0 1-42.667 0V200.96000000000004L398.933 315.307a20.907 20.907 0 0 1-29.866 0 21.333 21.333 0 0 1 0-30.294L517.973 134.39999999999998a20.907 20.907 0 0 1 14.934-6.4 20.907 20.907 0 0 1 7.68 0 21.333 21.333 0 0 1 7.253 5.12l148.907 150.613a21.333 21.333 0 0 1 0.853 31.574z"  horiz-adv-x="1024" />

    
    <glyph glyph-name="_icon_left" unicode="&#58915;" d="M746.667 384H328.96l114.347 113.067a20.907 20.907 0 0 1 0 29.866 21.333 21.333 0 0 1-30.294 0L262.827 378.02700000000004a20.907 20.907 0 0 1 0-30.72L413.44 198.39999999999998a21.333 21.333 0 0 1 30.293 0 20.907 20.907 0 0 1 0 29.867L328.96 341.33299999999997h417.707a21.333 21.333 0 0 1 0 42.667z"  horiz-adv-x="1024" />

    
    <glyph glyph-name="_icon_up" unicode="&#58916;" d="M697.6 482.987L548.693 633.173a20.907 20.907 0 0 1-30.72 0L369.067 482.987a21.333 21.333 0 0 1 0-30.294 20.907 20.907 0 0 1 29.866 0L512 567.04v-417.707a21.333 21.333 0 0 1 42.667 0V567.04l113.066-114.347a20.907 20.907 0 0 1 29.867 0 21.333 21.333 0 0 1 0 30.294z"  horiz-adv-x="1024" />

    
    <glyph glyph-name="_icon_phone" unicode="&#58923;" d="M746.24 893.44H218.88C188.16 893.44 160 865.28 160 832v-898.56c0-33.28 28.16-58.88 58.88-58.88h524.8c33.28 0 58.88 28.16 58.88 58.88V832c2.56 33.28-25.6 61.44-56.32 61.44zM211.2 686.08h542.72v-568.32H211.2V686.08zM218.88 842.24h524.8c5.12 0 7.68-5.12 7.68-7.68v-94.72H211.2V832C211.2 837.12 216.32 842.24 218.88 842.24z m527.36-916.48H218.88c-5.12 0-7.68 5.12-7.68 7.68V64h542.72v-130.56c0-2.56-5.12-7.68-7.68-7.68zM482.56 20.480000000000018a30.72 30.72 0 1 1 0-61.44 30.72 30.72 0 0 1 0 61.44z"  horiz-adv-x="1024" />

    
    <glyph glyph-name="_icon_web" unicode="&#58924;" d="M480 76.79999999999995V192H128a64 64 0 0 0-64 64V704a64 64 0 0 0 64 64h768a64 64 0 0 0 64-64v-448a64 64 0 0 0-64-64H544v-115.2h192a32 32 0 0 0 32-32v-32H256v32a32 32 0 0 0 32 32h192z m64 179.2H896V704H128v-448h416z"  horiz-adv-x="1024" />

    
    <glyph glyph-name="_group_view" unicode="&#58932;" d="M521.152 297.216a192 192 0 1 0 237.696 0A320.128 320.128 0 0 0 960 0h-64a256 256 0 1 1-512 0H320a320.128 320.128 0 0 0 201.152 297.216zM640 320a128 128 0 1 1 0 256 128 128 0 0 1 0-256zM568.32 693.8240000000001c-20.992-6.08-40.96-14.848-59.392-25.856a128 128 0 1 1-116.8-155.712C386.816 491.776 384 470.208 384 448a256 256 0 0 1-256-256H64a320.128 320.128 0 0 0 201.152 297.216A192 192 0 1 0 568.32 693.76z"  horiz-adv-x="1024" />

    
    <glyph glyph-name="_icon_empty1" unicode="&#58929;" d="M512 640a256 256 0 1 1 256-256 256 256 0 0 1-256 256zM298.667 384a213.333 213.333 0 0 0 49.066 134.4L646.4 219.73299999999995A213.333 213.333 0 0 0 512 170.66700000000003 213.333 213.333 0 0 0 298.667 384z m377.6-134.4L377.6 548.267A213.333 213.333 0 0 0 512 597.3330000000001 213.333 213.333 0 0 0 725.333 384a213.333 213.333 0 0 0-49.066-134.4z"  horiz-adv-x="1024" />

    
    <glyph glyph-name="_private" unicode="&#58937;" d="M284.48 446.272v270.08a64 64 0 0 0 64 64h320a64 64 0 0 0 64-64v-270.08h96.256a32 32 0 0 0 32-32v-384a32 32 0 0 0-32-32h-640a32 32 0 0 0-32 32v384a32 32 0 0 0 32 32h95.744z m64 0h320v238.08a32 32 0 0 1-32 32h-256a32 32 0 0 1-32-32v-238.08z m-127.744-64v-320h576v320h-576z m319.808-166.4v-52.352a12.8 12.8 0 0 0-12.8-12.8h-38.4a12.8 12.8 0 0 0-12.8 12.8v51.84a48 48 0 1 0 64 0.448z"  horiz-adv-x="1024" />

    
    <glyph glyph-name="_icon_fade-in" unicode="&#58970;" d="M640 426.667v256H213.333V256h256v-170.667h341.334V426.667z m-384-128V640h341.333v-213.333h-128v-128zM597.333 384v-85.333H512V384zM768 128H512V256h128V384h128z"  horiz-adv-x="1024" />

    
    <glyph glyph-name="_infinite" unicode="&#58971;" d="M318.336 148.544c-122.816 0-224 99.2-224 219.456 0 120.32 101.184 219.392 224 219.392a227.2 227.2 0 0 0 121.152-34.112 32.96 32.96 0 0 0 9.92-45.504 34.496 34.496 0 0 0-46.464-9.728 155.264 155.264 0 0 1-84.608 24.32c-86.272 0-157.632-69.888-157.632-154.368 0-84.48 71.36-154.432 157.632-154.432S475.968 283.52 475.968 368c0 17.92 14.912 32.512 33.152 32.512 18.304 0 33.216-14.656 33.216-32.512 0-120.32-101.184-219.456-224-219.456zM699.968 148.544c-46.464 0-91.264 12.992-127.744 39.04a32.896 32.896 0 0 0-8.32 45.44c9.984 14.72 31.552 17.92 46.464 8.192 26.56-17.92 58.048-27.648 89.6-27.648 86.272 0 157.632 69.888 157.632 154.432 0 84.48-71.36 154.368-157.632 154.368S542.336 452.48 542.336 368c0-17.92-14.912-32.512-33.216-32.512a32.96 32.96 0 0 0-33.152 32.512c0 120.32 101.184 219.392 224 219.392 122.752 0 224-97.472 224-219.392 0-120.32-101.248-219.456-224-219.456z"  horiz-adv-x="1024" />

    
    <glyph glyph-name="_selection_tool1" unicode="&#58972;" d="M888.035556 238.421333l-524.515556 524.515556a11.377778 11.377778 0 0 1-19.456-7.964445V13.084444a11.377778 11.377778 0 0 1 19.456-8.078222l213.902222 214.016h302.592a11.377778 11.377778 0 0 1 8.021334 19.399111z"  horiz-adv-x="1024" />

    
    <glyph glyph-name="_close" unicode="&#58973;" d="M263.04 587.648l45.312 45.248 452.544-452.544-45.248-45.248zM715.648 632.96l45.248-45.312-452.544-452.544-45.248 45.248z"  horiz-adv-x="1024" />

    
    <glyph glyph-name="_search" unicode="&#58976;" d="M480 64a352 352 0 1 0 0 704 352 352 0 0 0 0-704z m0 64a288 288 0 1 1 0 576 288 288 0 0 1 0-576zM726.656 169.34400000000005a32 32 0 0 0 45.248 0l158.4-158.336-45.312-45.312-158.336 158.4a32 32 0 0 0 0 45.248z"  horiz-adv-x="1024" />

    
    <glyph glyph-name="_ascending" unicode="&#58979;" d="M341.333333 759.466667m34.133334 0l0 0q34.133333 0 34.133333-34.133334l0-682.666666q0-34.133333-34.133333-34.133334l0 0q-34.133333 0-34.133334 34.133334l0 682.666666q0 34.133333 34.133334 34.133334ZM357.868446 759.488535m24.135911-24.135911l0 0q24.135911-24.135911 0-48.271823l-193.087291-193.087292q-24.135911-24.135911-48.271823 0l0 0q-24.135911 24.135911 0 48.271823l193.087291 193.087292q24.135911 24.135911 48.271823 0Z"  horiz-adv-x="1024" />

    
    <glyph glyph-name="_grid" unicode="&#58980;" d="M136.533333 759.466667m68.266667 0l136.533333 0q68.266667 0 68.266667-68.266667l0-136.533333q0-68.266667-68.266667-68.266667l-136.533333 0q-68.266667 0-68.266667 68.266667l0 136.533333q0 68.266667 68.266667 68.266667ZM136.533333 281.6m68.266667 0l136.533333 0q68.266667 0 68.266667-68.266667l0-136.533333q0-68.266667-68.266667-68.266667l-136.533333 0q-68.266667 0-68.266667 68.266667l0 136.533333q0 68.266667 68.266667 68.266667ZM614.4 281.6m68.266667 0l136.533333 0q68.266667 0 68.266667-68.266667l0-136.533333q0-68.266667-68.266667-68.266667l-136.533333 0q-68.266667 0-68.266667 68.266667l0 136.533333q0 68.266667 68.266667 68.266667ZM614.4 759.466667m68.266667 0l136.533333 0q68.266667 0 68.266667-68.266667l0-136.533333q0-68.266667-68.266667-68.266667l-136.533333 0q-68.266667 0-68.266667 68.266667l0 136.533333q0 68.266667 68.266667 68.266667Z"  horiz-adv-x="1024" />

    
    </font>
</defs>
</svg>
